<svg width="32" height="32" viewBox="0 0 32 32" fill="none" xmlns="http://www.w3.org/2000/svg">
<path opacity="0.5" fill-rule="evenodd" clip-rule="evenodd" d="M4 19C4.55228 19 5 19.4477 5 20C5 21.9139 5.00212 23.2487 5.13753 24.2559C5.26907 25.2343 5.50967 25.7523 5.87868 26.1213C6.24769 26.4904 6.7658 26.7309 7.74416 26.8625C8.75129 26.9979 10.0861 27 12 27H20C21.9139 27 23.2487 26.9979 24.2559 26.8625C25.2343 26.7309 25.7523 26.4904 26.1213 26.1213C26.4904 25.7523 26.7309 25.2343 26.8625 24.2559C26.9979 23.2487 27 21.9139 27 20C27 19.4477 27.4477 19 28 19C28.5523 19 29 19.4477 29 20V20.0732C29 21.8967 29 23.3664 28.8447 24.5224C28.6833 25.7225 28.3381 26.7329 27.5356 27.5355C26.7329 28.3381 25.7225 28.6833 24.5224 28.8447C23.3664 29 21.8967 29 20.0732 29H11.9268C10.1034 29 8.63363 29 7.47767 28.8447C6.27752 28.6833 5.26703 28.3381 4.46447 27.5356C3.66191 26.7329 3.31672 25.7225 3.15536 24.5224C2.99995 23.3664 2.99997 21.8967 3 20.0732C3 20.0488 3 20.0244 3 20C3 19.4477 3.44772 19 4 19Z" fill="white"/>
<path fill-rule="evenodd" clip-rule="evenodd" d="M16 22.3333C16.2808 22.3333 16.5485 22.2153 16.738 22.0081L22.0713 16.1748C22.444 15.7672 22.4157 15.1347 22.0081 14.762C21.6005 14.3893 20.968 14.4176 20.5953 14.8252L17 18.7576V4C17 3.44772 16.5522 3 16 3C15.4477 3 15 3.44772 15 4V18.7576L11.4047 14.8252C11.032 14.4176 10.3995 14.3893 9.99187 14.762C9.58427 15.1347 9.55593 15.7672 9.9286 16.1748L15.262 22.0081C15.4514 22.2153 15.7192 22.3333 16 22.3333Z" fill="white"/>
</svg>
