<svg width="32" height="32" viewBox="0 0 32 32" fill="none" xmlns="http://www.w3.org/2000/svg">
<path d="M26.7884 9H22.4324C21.7631 9 21.2207 9.53666 21.2207 10.1996V13.3135H18.0759C17.4064 13.3135 16.8641 13.85 16.8641 14.5129V17.6271H13.7192C13.0497 17.6271 12.5075 18.1643 12.5075 18.8265V22.0907H9.21171C8.89012 22.0907 8.58195 22.2169 8.35482 22.4416C8.1275 22.6664 8 22.973 8 23.2901L8.00039 25.7999C8.00039 26.4634 8.54297 27 9.21206 27H26.7884C27.4579 27 28 26.4634 28 25.7999V10.1995C28.0001 9.53666 27.4579 9 26.7884 9Z" fill="#888B97"/>
<path d="M20.764 5.2453C20.4425 4.92389 19.9158 4.91771 19.5863 5.23043C14.2431 10.3055 9.15982 15.2624 4.24409 20.0549C4.08768 20.2074 4 20.4146 4 20.6296V26.1877C4 26.6356 4.37278 27 4.83294 27C5.29264 27 5.66608 26.6357 5.66608 26.1877V20.9657C10.502 16.2503 15.5017 11.378 20.7485 6.39368C21.0778 6.08102 21.0845 5.56652 20.764 5.2453Z" fill="#888B97"/>
</svg>
