<svg width="16" height="16" viewBox="0 0 16 16" fill="none" xmlns="http://www.w3.org/2000/svg">
<g clip-path="url(#clip0_1278_1925)">
<path d="M12.2 10.0001C11.1 9.90009 10.5 11.4001 9.70001 11.8001C8.40001 12.5001 6.00001 10.0001 6.00001 10.0001C6.00001 10.0001 3.50001 7.60009 4.10001 6.30009C4.60001 5.50009 6.10001 4.90009 6.00001 3.80009C5.90001 2.80009 3.70001 -0.799911 2.60001 0.200089C0.200013 2.40009 1.31764e-05 3.30009 1.31764e-05 5.10009C-0.0999868 8.20009 3.90001 12.1001 3.90001 12.1001C4.30001 12.5001 7.80001 16.1001 10.9 16.0001C12.7 16.0001 13.6 15.8001 15.8 13.4001C16.8 12.3001 13.3 10.1001 12.2 10.0001Z" fill="white"/>
</g>
<defs>
<clipPath id="clip0_1278_1925">
<rect width="16" height="16" fill="white"/>
</clipPath>
</defs>
</svg>
