<svg width="24" height="24" viewBox="0 0 24 24" fill="none" xmlns="http://www.w3.org/2000/svg">
<path d="M20.7051 20.2842L15.4415 15.0193C16.5904 13.5086 17.1228 11.6178 16.9309 9.72945C16.739 7.84108 15.8371 6.09612 14.4078 4.84759C12.9785 3.59906 11.1285 2.94019 9.23193 3.00427C7.3354 3.06835 5.53401 3.8506 4.1922 5.19276C2.85038 6.53492 2.06834 8.33678 2.00427 10.2338C1.94021 12.1308 2.59891 13.9814 3.84711 15.411C5.09532 16.8407 6.83983 17.7428 8.72771 17.9347C10.6156 18.1267 12.5059 17.5942 14.0162 16.445L19.2797 21.7099C19.4704 21.8959 19.7261 22 19.9924 22C20.2587 22 20.5145 21.8959 20.7051 21.7099C20.8939 21.5208 21 21.2644 21 20.9971C21 20.7297 20.8939 20.4734 20.7051 20.2842ZM4.07028 10.5115C4.07028 9.43498 4.38943 8.38261 4.98738 7.48749C5.58532 6.59237 6.43521 5.8947 7.42955 5.48273C8.4239 5.07075 9.51806 4.96295 10.5737 5.17298C11.6292 5.383 12.5989 5.90141 13.3599 6.66265C14.121 7.42389 14.6392 8.39377 14.8492 9.44963C15.0592 10.5055 14.9514 11.5999 14.5395 12.5945C14.1277 13.5891 13.4302 14.4392 12.5353 15.0373C11.6404 15.6354 10.5883 15.9547 9.51202 15.9547C8.0693 15.953 6.68617 15.379 5.66601 14.3585C4.64586 13.3381 4.07198 11.9546 4.07028 10.5115Z" fill="#94A3B8"/>
</svg>
