<svg width="32" height="32" viewBox="0 0 32 32" fill="none" xmlns="http://www.w3.org/2000/svg">
<g clip-path="url(#clip0_1307_408)">
<path d="M6.66663 12.0001C6.66663 6.84543 10.8453 2.66675 16 2.66675C21.1546 2.66675 25.3333 6.84543 25.3333 12.0001V13.3806C27.5948 13.7042 29.3333 15.6491 29.3333 18.0001V18.3334C29.3333 20.7003 27.292 22.7753 24.8904 22.6642C23.9032 25.4907 21.3952 27.3957 18.6865 27.8791C18.0608 28.1078 17.3185 28.0001 16.6666 28.0001C15.5621 28.0001 14.6666 27.1046 14.6666 26.0001C14.6666 24.8955 15.5621 24.0001 16.6666 24.0001C17.7245 24.0001 18.8949 23.8471 19.6086 24.8115C21.338 23.9893 22.6666 22.2514 22.6666 20.0001V12.0001C22.6666 8.31819 19.6818 5.33341 16 5.33341C12.3181 5.33341 9.33329 8.31819 9.33329 12.0001V20.3334C9.33329 21.6221 8.28863 22.6667 6.99996 22.6667C4.60672 22.6667 2.66663 20.7266 2.66663 18.3334V18.0001C2.66663 15.6491 4.40509 13.7042 6.66663 13.3806V12.0001Z" fill="white"/>
</g>
<defs>
<clipPath id="clip0_1307_408">
<rect width="32" height="32" fill="white"/>
</clipPath>
</defs>
</svg>
