<svg width="32" height="32" viewBox="0 0 32 32" fill="none" xmlns="http://www.w3.org/2000/svg">
<g clip-path="url(#clip0_1307_406)">
<path d="M16 21.416C10.965 21.438 6.75702 24.953 5.67402 29.663L5.66002 29.735C5.64202 29.815 5.63102 29.907 5.63102 30.001C5.63102 30.691 6.19102 31.251 6.88102 31.251C7.47702 31.251 7.97602 30.833 8.10102 30.275L8.10302 30.267C8.92802 26.609 12.15 23.917 16 23.917C19.85 23.917 23.073 26.609 23.887 30.214L23.897 30.268C24.024 30.834 24.522 31.25 25.118 31.25C25.808 31.25 26.368 30.691 26.368 30C26.368 29.905 26.357 29.813 26.337 29.724L26.339 29.732C25.241 24.952 21.034 21.437 16.002 21.416H16ZM9.16402 11.102C12.022 11.102 14.34 8.785 14.34 5.926C14.34 3.067 12.023 0.75 9.16402 0.75C6.30602 0.75 3.98802 3.067 3.98802 5.926C3.99202 8.783 6.30802 11.098 9.16402 11.102ZM9.16402 3.25C10.642 3.25 11.84 4.448 11.84 5.926C11.84 7.404 10.642 8.602 9.16402 8.602C7.68602 8.602 6.48802 7.404 6.48802 5.926C6.49002 4.449 7.68702 3.252 9.16402 3.25ZM22.926 11.102C25.784 11.102 28.102 8.785 28.102 5.926C28.102 3.067 25.785 0.75 22.926 0.75C20.068 0.75 17.75 3.067 17.75 5.926C17.754 8.783 20.069 11.098 22.925 11.102H22.926ZM22.926 3.25C24.404 3.25 25.602 4.448 25.602 5.926C25.602 7.404 24.404 8.602 22.926 8.602C21.448 8.602 20.25 7.404 20.25 5.926C20.252 4.449 21.449 3.252 22.926 3.25ZM31.311 19.734C30.447 15.623 26.851 12.58 22.544 12.58C22.149 12.58 21.76 12.606 21.379 12.655L21.424 12.65C20.494 10.534 18.417 9.082 16 9.082C13.586 9.082 11.51 10.53 10.593 12.606L10.578 12.644C10.312 12.61 9.99802 12.587 9.68002 12.581H9.67102C5.34102 12.6 1.72302 15.622 0.790023 19.671L0.778023 19.733C0.760023 19.813 0.749023 19.906 0.749023 20.001C0.749023 20.692 1.30902 21.252 2.00002 21.252C2.59602 21.252 3.09402 20.835 3.22002 20.277L3.22202 20.269C3.90602 17.288 6.53102 15.095 9.67002 15.083C9.81402 15.083 9.95302 15.103 10.094 15.112C10.15 18.33 12.773 20.917 15.999 20.917C19.223 20.917 21.844 18.333 21.904 15.123V15.117C22.075 15.104 22.243 15.082 22.418 15.082C25.558 15.094 28.183 17.286 28.86 20.222L28.869 20.267C28.995 20.834 29.494 21.251 30.09 21.251C30.78 21.251 31.339 20.692 31.339 20.002C31.339 19.908 31.329 19.816 31.309 19.728L31.311 19.736V19.734ZM16 18.416C16 18.416 16 18.416 15.999 18.416C14.112 18.416 12.582 16.886 12.582 14.999C12.582 13.112 14.112 11.582 15.999 11.582C17.886 11.582 19.416 13.112 19.416 14.999C19.416 14.999 19.416 14.999 19.416 15C19.413 16.886 17.886 18.413 16 18.416Z" fill="white"/>
</g>
<defs>
<clipPath id="clip0_1307_406">
<rect width="32" height="32" fill="white"/>
</clipPath>
</defs>
</svg>
