<svg width="18" height="18" viewBox="0 0 18 18" fill="none" xmlns="http://www.w3.org/2000/svg">
<path fill-rule="evenodd" clip-rule="evenodd" d="M12.3853 16.125H6.12441C3.82464 16.125 2.06033 15.2943 2.56148 11.9511L3.145 7.42016C3.45393 5.75197 4.518 5.11353 5.45164 5.11353H13.0855C14.0329 5.11353 15.0352 5.80002 15.3921 7.42016L15.9757 11.9511C16.4013 14.9167 14.685 16.125 12.3853 16.125Z" stroke="#6941C6" stroke-width="1.5" stroke-linecap="round" stroke-linejoin="round"/>
<path d="M12.4883 4.9488C12.4883 3.15925 11.0376 1.70853 9.24802 1.70853V1.70853C8.38627 1.70487 7.55856 2.04465 6.94792 2.65271C6.33728 3.26078 5.99401 4.08704 5.99402 4.9488H5.99402" stroke="#6941C6" stroke-width="1.5" stroke-linecap="round" stroke-linejoin="round"/>
<path d="M11.4722 8.3264H11.4379" stroke="#6941C6" stroke-width="1.5" stroke-linecap="round" stroke-linejoin="round"/>
<path d="M7.0993 8.3264H7.06498" stroke="#6941C6" stroke-width="1.5" stroke-linecap="round" stroke-linejoin="round"/>
</svg>
