<svg width="16" height="16" viewBox="0 0 16 16" fill="none" xmlns="http://www.w3.org/2000/svg">
<path d="M14 6.66667H4.66671V4.66667C4.66671 3.93133 5.26471 3.33333 6.00004 3.33333C6.73537 3.33333 7.33337 3.93133 7.33337 4.66667H8.66671C8.66671 3.196 7.47071 2 6.00004 2C4.52937 2 3.33337 3.196 3.33337 4.66667V6.66667H2.00004C1.82323 6.66667 1.65366 6.7369 1.52864 6.86193C1.40361 6.98695 1.33337 7.15652 1.33337 7.33333V8.66667C1.33337 10.404 2.44937 11.882 4.00004 12.4333V14.6667H5.33337V12.6667H10.6667V14.6667H12V12.4333C13.5507 11.882 14.6667 10.404 14.6667 8.66667V7.33333C14.6667 7.15652 14.5965 6.98695 14.4714 6.86193C14.3464 6.7369 14.1769 6.66667 14 6.66667ZM13.3334 8.66667C13.3334 10.1373 12.1374 11.3333 10.6667 11.3333H5.33337C3.86271 11.3333 2.66671 10.1373 2.66671 8.66667V8H13.3334V8.66667Z" fill="#1F2A37"/>
</svg>
