<svg width="32" height="32" viewBox="0 0 32 32" fill="none" xmlns="http://www.w3.org/2000/svg">
<path d="M26.5391 15.9556H5.46091C4.63082 15.9556 3.95533 16.6311 3.95533 17.4611C3.95533 18.2912 4.63082 18.9667 5.46091 18.9667H26.5391C27.3692 18.9667 28.0447 18.2912 28.0447 17.4611C28.0447 16.6311 27.3692 15.9556 26.5391 15.9556Z" fill="#888B97"/>
<path d="M26.6776 17.9819C26.4056 17.9056 26.1325 18.0602 26.0573 18.3272L26.0181 18.4647H5.9828L5.94267 18.3272C5.86739 18.0602 5.59238 17.9076 5.32236 17.9819C5.05536 18.0581 4.90179 18.3362 4.9781 18.6022L6.36122 23.4441C6.78979 24.9447 8.17897 25.9926 9.73876 25.9926H22.2602C23.821 25.9926 25.2091 24.9447 25.6377 23.4441L27.0208 18.6022C27.0981 18.3362 26.9435 18.0581 26.6776 17.9819ZM9.73975 23.9851C9.07127 23.9851 8.47506 23.5364 8.29236 22.893L7.64096 20.6106C7.5647 20.3436 7.71925 20.0665 7.98522 19.9903C8.25421 19.914 8.53025 20.0695 8.60552 20.3356L9.25693 22.618C9.31917 22.8318 9.51687 22.9824 9.7397 22.9824C10.0167 22.9824 10.2416 23.2072 10.2416 23.4843C10.2416 23.7613 10.0168 23.9851 9.73975 23.9851Z" fill="#888B97"/>
<path d="M10.7034 25.0409C10.4555 24.9194 10.1553 25.0168 10.0299 25.2657L9.02616 27.2732C8.9027 27.5211 9.00306 27.8222 9.25101 27.9467C9.32426 27.9828 9.40058 27.9999 9.47586 27.9999C9.65954 27.9999 9.83621 27.8985 9.92452 27.7219L10.9282 25.7144C11.0517 25.4664 10.9513 25.1653 10.7034 25.0409Z" fill="#888B97"/>
<path d="M22.9738 27.2745L21.9701 25.2671C21.8457 25.0181 21.5445 24.9188 21.2966 25.0422C21.0487 25.1667 20.9483 25.4678 21.0717 25.7157L22.0754 27.7232C22.1638 27.8988 22.3404 28.0002 22.5241 28.0002C22.5994 28.0002 22.6757 27.9832 22.749 27.9481C22.9969 27.8236 23.0973 27.5224 22.9738 27.2745Z" fill="#888B97"/>
<path d="M24.1151 4C23.6032 4 23.1214 4.19973 22.7591 4.5621L21.1662 6.15501C20.9705 6.35073 20.9705 6.66893 21.1662 6.86465C21.3619 7.06038 21.6801 7.06038 21.8758 6.86465L23.4687 5.27274C23.6403 5.10011 23.8702 5.00474 24.1201 5.00474C24.624 5.00474 25.0335 5.41426 25.0335 5.91811V16.4572C25.0335 16.7342 25.2583 16.9591 25.5354 16.9591C25.8124 16.9591 26.0372 16.7342 26.0382 16.4562V5.91713C26.0383 4.86021 25.1791 4 24.1151 4Z" fill="#888B97"/>
<path d="M22.3776 6.65706L21.3739 5.65335C21.2595 5.53892 21.0999 5.48571 20.9373 5.51281L18.428 5.92435C18.2433 5.95447 18.0917 6.08493 18.0325 6.26161C17.9733 6.43828 18.0185 6.63499 18.149 6.76847L21.1601 9.86997C21.2555 9.96934 21.387 10.0226 21.5194 10.0226C21.5666 10.0226 21.6148 10.0155 21.662 10.0015C21.8406 9.9493 21.9761 9.80175 22.0122 9.61906L22.5141 7.10977C22.5472 6.94613 22.496 6.77647 22.3776 6.65706Z" fill="#888B97"/>
<path d="M15.8525 10.0804C15.6567 9.88466 15.3385 9.88466 15.1428 10.0804L14.1391 11.0841C13.9434 11.2798 13.9434 11.598 14.1391 11.7937C14.2375 11.8911 14.3659 11.9403 14.4944 11.9403C14.6229 11.9403 14.7514 11.8911 14.8488 11.7937L15.8525 10.79C16.0482 10.5943 16.0482 10.2761 15.8525 10.0804Z" fill="#888B97"/>
<path d="M17.8599 12.0882C17.6641 11.8925 17.3459 11.8925 17.1502 12.0882L16.1465 13.0919C15.9508 13.2876 15.9508 13.6058 16.1465 13.8016C16.2449 13.8989 16.3733 13.9481 16.5018 13.9481C16.6303 13.9481 16.7588 13.8989 16.8562 13.8016L17.8599 12.7978C18.0556 12.6021 18.0556 12.2839 17.8599 12.0882Z" fill="#888B97"/>
<path d="M18.8636 9.07697C18.6679 8.88124 18.3497 8.88124 18.154 9.07697L17.1503 10.0807C16.9545 10.2764 16.9545 10.5946 17.1503 10.7903C17.2486 10.8877 17.3771 10.9369 17.5056 10.9369C17.6341 10.9369 17.7625 10.8877 17.8599 10.7903L18.8636 9.78662C19.0593 9.59089 19.0593 9.2727 18.8636 9.07697Z" fill="#888B97"/>
</svg>
