<svg width="16" height="16" viewBox="0 0 16 16" fill="none" xmlns="http://www.w3.org/2000/svg">
<path d="M14 7.18658V5.33325C14 4.23325 13.1 3.33325 12 3.33325H9.33337C8.82004 3.33325 8.35337 3.53325 8.00004 3.85325C7.64671 3.53325 7.18004 3.33325 6.66671 3.33325H4.00004C2.90004 3.33325 2.00004 4.23325 2.00004 5.33325V7.18658C1.59337 7.55325 1.33337 8.07992 1.33337 8.66658V12.6666H2.66671V11.3333H13.3334V12.6666H14.6667V8.66658C14.6667 8.07992 14.4067 7.55325 14 7.18658ZM9.33337 4.66659H12C12.3667 4.66659 12.6667 4.96659 12.6667 5.33325V6.66658H8.66671V5.33325C8.66671 4.96659 8.96671 4.66659 9.33337 4.66659ZM3.33337 5.33325C3.33337 4.96659 3.63337 4.66659 4.00004 4.66659H6.66671C7.03337 4.66659 7.33337 4.96659 7.33337 5.33325V6.66658H3.33337V5.33325ZM2.66671 9.99992V8.66658C2.66671 8.29992 2.96671 7.99992 3.33337 7.99992H12.6667C13.0334 7.99992 13.3334 8.29992 13.3334 8.66658V9.99992H2.66671Z" fill="#1F2A37"/>
</svg>
