<svg width="18" height="18" viewBox="0 0 18 18" fill="none" xmlns="http://www.w3.org/2000/svg">
<g clip-path="url(#clip0_3695_1231)">
<path d="M11.625 5.20267C12.4233 5.66333 13.0863 6.32614 13.5471 7.1244C14.0079 7.92266 14.2503 8.82821 14.25 9.74992V15.7499H11.1225C10.9675 16.1891 10.6802 16.5693 10.3001 16.8383C9.9199 17.1073 9.46569 17.2518 9 17.2518C8.53432 17.2518 8.0801 17.1073 7.69995 16.8383C7.3198 16.5693 7.03245 16.1891 6.8775 15.7499H3.75V9.74992C3.74966 8.82821 3.9921 7.92266 4.45291 7.1244C4.91372 6.32614 5.57666 5.66333 6.375 5.20267C6.25177 4.98133 6.15725 4.74517 6.09375 4.49992H3.75V2.99992H6.0945C6.26133 2.35624 6.63718 1.78618 7.16305 1.37923C7.68893 0.972273 8.33505 0.751465 9 0.751465C9.66495 0.751465 10.3111 0.972273 10.8369 1.37923C11.3628 1.78618 11.7387 2.35624 11.9055 2.99992H14.25V4.49992H11.9055C11.8418 4.74742 11.7465 4.98367 11.6258 5.20267H11.625ZM10.5352 6.32767C10.086 6.59617 9.561 6.74992 9 6.74992C8.45946 6.75074 7.92884 6.6048 7.46475 6.32767C6.80494 6.62385 6.24483 7.10448 5.85188 7.71166C5.45894 8.31884 5.24992 9.02668 5.25 9.74992V14.2499H6.75V11.2499C6.75 10.6532 6.98705 10.0809 7.40901 9.65893C7.83097 9.23698 8.40326 8.99992 9 8.99992C9.59674 8.99992 10.169 9.23698 10.591 9.65893C11.0129 10.0809 11.25 10.6532 11.25 11.2499V14.2499H12.75V9.74992C12.7501 9.02668 12.5411 8.31884 12.1481 7.71166C11.7552 7.10448 11.1951 6.62385 10.5352 6.32767ZM9 10.4999C8.80109 10.4999 8.61032 10.5789 8.46967 10.7196C8.32902 10.8602 8.25 11.051 8.25 11.2499V14.9999C8.25 15.1988 8.32902 15.3896 8.46967 15.5303C8.61032 15.6709 8.80109 15.7499 9 15.7499C9.19891 15.7499 9.38968 15.6709 9.53033 15.5303C9.67098 15.3896 9.75 15.1988 9.75 14.9999V11.2499C9.75 11.051 9.67098 10.8602 9.53033 10.7196C9.38968 10.5789 9.19891 10.4999 9 10.4999ZM9 5.24992C9.39783 5.24992 9.77936 5.09189 10.0607 4.81058C10.342 4.52928 10.5 4.14775 10.5 3.74992C10.5 3.3521 10.342 2.97057 10.0607 2.68926C9.77936 2.40796 9.39783 2.24992 9 2.24992C8.60218 2.24992 8.22064 2.40796 7.93934 2.68926C7.65804 2.97057 7.5 3.3521 7.5 3.74992C7.5 4.14775 7.65804 4.52928 7.93934 4.81058C8.22064 5.09189 8.60218 5.24992 9 5.24992Z" fill="#6941C6"/>
</g>
<defs>
<clipPath id="clip0_3695_1231">
<rect width="18" height="18" fill="white"/>
</clipPath>
</defs>
</svg>
