<svg width="18" height="18" viewBox="0 0 18 18" fill="none" xmlns="http://www.w3.org/2000/svg">
<path d="M2 16H13.1111" stroke="#6941C6" stroke-width="1.5" stroke-miterlimit="10" stroke-linecap="round" stroke-linejoin="round"/>
<path d="M2.55554 6V9.44444C2.55554 12.1111 4.77776 14.3333 7.55554 14.3333C10.3333 14.3333 12.5555 12.1111 12.5555 9.44444V6H2.55554Z" stroke="#6941C6" stroke-width="1.5" stroke-miterlimit="10" stroke-linecap="round" stroke-linejoin="round"/>
<path d="M14.2222 11.5557C13.2778 11.5557 12.5555 10.8334 12.5555 9.889V8.22233C12.5555 7.33344 13.2778 6.55566 14.2222 6.55566C15.1111 6.55566 15.8889 7.27789 15.8889 8.22233V9.889C15.8889 10.8334 15.1667 11.5557 14.2222 11.5557Z" stroke="#6941C6" stroke-width="1.5" stroke-miterlimit="10" stroke-linecap="round" stroke-linejoin="round"/>
<path d="M7.55542 1C6.88875 2 6.88875 3.33333 7.55542 4.33333" stroke="#6941C6" stroke-width="1.5" stroke-miterlimit="10" stroke-linecap="round" stroke-linejoin="round"/>
<path d="M5.33337 1C4.66671 2 4.66671 3.33333 5.33337 4.33333" stroke="#6941C6" stroke-width="1.5" stroke-miterlimit="10" stroke-linecap="round" stroke-linejoin="round"/>
<path d="M9.77771 1C9.11104 2 9.11104 3.33333 9.77771 4.33333" stroke="#6941C6" stroke-width="1.5" stroke-miterlimit="10" stroke-linecap="round" stroke-linejoin="round"/>
</svg>
