<svg width="18" height="18" viewBox="0 0 18 18" fill="none" xmlns="http://www.w3.org/2000/svg">
<g clip-path="url(#clip0_3695_1224)">
<path d="M10.4434 3.9375C12.1889 3.9375 13.8113 4.8367 14.7364 6.31688L16.0769 8.46108C17.1646 8.6194 18 9.5559 18 10.6875C18 11.8925 17.0528 12.8762 15.8623 12.9347L15.75 12.9375L15.679 12.9379C15.4291 13.9082 14.5483 14.625 13.5 14.625C12.4517 14.625 11.5709 13.9082 11.321 12.9379H6.67901C6.42908 13.9082 5.54826 14.625 4.5 14.625C3.45174 14.625 2.57092 13.9082 2.321 12.9379L2.25 12.9375C1.00736 12.9375 0 11.9301 0 10.6875C0 9.55598 0.835252 8.61954 1.92283 8.46111L3.26362 6.31688C4.18874 4.8367 5.81111 3.9375 7.55661 3.9375H10.4434ZM4.5 11.25C3.87868 11.25 3.375 11.7537 3.375 12.375C3.375 12.9963 3.87868 13.5 4.5 13.5C5.12132 13.5 5.625 12.9963 5.625 12.375C5.625 11.7537 5.12132 11.25 4.5 11.25ZM13.5 11.25C12.8787 11.25 12.375 11.7537 12.375 12.375C12.375 12.9963 12.8787 13.5 13.5 13.5C14.1213 13.5 14.625 12.9963 14.625 12.375C14.625 11.7537 14.1213 11.25 13.5 11.25ZM15.75 9.5625H2.25C1.62868 9.5625 1.125 10.0662 1.125 10.6875C1.125 11.2806 1.58393 11.7665 2.16604 11.8094L2.25 11.8125L2.32085 11.8126C2.57058 10.8421 3.45154 10.125 4.5 10.125C5.54846 10.125 6.42942 10.8421 6.67915 11.8126H11.3209C11.5706 10.8421 12.4515 10.125 13.5 10.125C14.5485 10.125 15.4294 10.8421 15.6791 11.8126L15.75 11.8125C16.3713 11.8125 16.875 11.3088 16.875 10.6875C16.875 10.0944 16.4161 9.60853 15.834 9.56559L15.75 9.5625ZM8.4375 5.06194L7.55661 5.0625C6.199 5.0625 4.93715 5.76188 4.21762 6.91313L3.26419 8.4375L8.4375 8.43694V5.06194ZM10.4434 5.0625L9.5625 5.06193V8.43694L14.7352 8.4375L13.7824 6.91313C13.0895 5.80452 11.8937 5.11493 10.5938 5.06537L10.4434 5.0625Z" fill="#6941C6"/>
</g>
<defs>
<clipPath id="clip0_3695_1224">
<rect width="18" height="18" fill="white"/>
</clipPath>
</defs>
</svg>
