<svg width="18" height="18" viewBox="0 0 18 18" fill="none" xmlns="http://www.w3.org/2000/svg">
<path d="M16.5312 14.1504C16.8458 14.1504 17.0996 14.4048 17.0996 14.7188C17.0996 15.0332 16.8457 15.2871 16.5312 15.2871H2.46875C2.1543 15.2871 1.90039 15.0332 1.90039 14.7188C1.90039 14.4048 2.15424 14.1504 2.46875 14.1504H16.5312ZM10.9062 2.90039C11.2208 2.90039 11.4746 3.15484 11.4746 3.46875C11.4746 3.7832 11.2207 4.03711 10.9062 4.03711H10.0684V4.7832C13.9992 5.07552 17.0996 8.36985 17.0996 12.375V12.8438C17.0996 13.1582 16.8457 13.4121 16.5312 13.4121H2.46875C2.1543 13.4121 1.90039 13.1582 1.90039 12.8438V12.375C1.90039 8.37051 4.99975 5.07647 8.92969 4.7832V4.4209C8.92989 4.30126 8.93041 4.17978 8.93066 4.08887C8.93072 4.07027 8.93062 4.05293 8.93066 4.03711H8.09375C7.7793 4.03711 7.52539 3.7832 7.52539 3.46875C7.52539 3.15484 7.77924 2.90039 8.09375 2.90039H10.9062ZM9.5 5.91211C5.96413 5.91211 3.09329 8.75219 3.04004 12.2754H15.96C15.9067 8.75219 13.0359 5.91211 9.5 5.91211Z" fill="#6941C6" stroke="#6941C6" stroke-width="0.2"/>
</svg>
