<svg width="8" height="8" viewBox="0 0 8 8" fill="none" xmlns="http://www.w3.org/2000/svg">
<path fill-rule="evenodd" clip-rule="evenodd" d="M7.32412 2.22631L7.90764 2.45551C7.94476 2.47013 7.97404 2.49768 7.98906 2.53211C8.00408 2.56653 8.00362 2.60503 7.98776 2.63914L7.84596 2.93607L6.98592 2.59682L7.12773 2.29989C7.14364 2.2658 7.17364 2.23891 7.21112 2.22511C7.24861 2.21132 7.29053 2.21175 7.32767 2.22631H7.32412ZM0.629605 0.513112H1.21029V0.177766C1.21328 0.132395 1.23501 0.0897819 1.27105 0.0586264C1.30708 0.027471 1.35471 0.0101225 1.4042 0.0101225C1.4537 0.0101225 1.50132 0.027471 1.53736 0.0586264C1.5734 0.0897819 1.59513 0.132395 1.59812 0.177766V0.513112H2.44894V0.177766C2.44894 0.13062 2.46933 0.085404 2.50563 0.0520665C2.54193 0.0187289 2.59116 0 2.6425 0C2.69383 0 2.74307 0.0187289 2.77937 0.0520665C2.81567 0.085404 2.83606 0.13062 2.83606 0.177766V0.513112H3.68688V0.177766C3.68688 0.13062 3.70727 0.085404 3.74357 0.0520665C3.77987 0.0187289 3.8291 0 3.88044 0C3.93177 0 3.98101 0.0187289 4.01731 0.0520665C4.05361 0.085404 4.074 0.13062 4.074 0.177766V0.513112H4.92482V0.177766C4.92482 0.13062 4.94521 0.085404 4.98151 0.0520665C5.01781 0.0187289 5.06704 1.05957e-08 5.11838 1.05957e-08C5.16971 1.05957e-08 5.21895 0.0187289 5.25525 0.0520665C5.29155 0.085404 5.31194 0.13062 5.31194 0.177766V0.513112H5.9692C6.13601 0.513627 6.29582 0.574713 6.41378 0.68304C6.53173 0.791367 6.59824 0.938143 6.5988 1.09134V1.8584C6.54789 1.91574 6.50589 1.97929 6.47401 2.04724L6.33221 2.34417C6.32324 2.36892 6.31591 2.39414 6.31023 2.4197C6.29498 2.44392 6.28125 2.46892 6.26911 2.49458L6.22657 2.58575V1.09134C6.2262 1.02962 6.19933 0.970525 6.15181 0.926881C6.10429 0.883238 6.03995 0.858568 5.97274 0.858226H5.31761V1.19357C5.31761 1.24072 5.29722 1.28593 5.26092 1.31927C5.22462 1.35261 5.17539 1.37134 5.12405 1.37134C5.07271 1.37134 5.02348 1.35261 4.98718 1.31927C4.95088 1.28593 4.93049 1.24072 4.93049 1.19357V0.858226H4.07967V1.19357C4.07967 1.24072 4.05928 1.28593 4.02298 1.31927C3.98668 1.35261 3.93745 1.37134 3.88611 1.37134C3.83478 1.37134 3.78554 1.35261 3.74924 1.31927C3.71294 1.28593 3.69255 1.24072 3.69255 1.19357V0.858226H2.83606V1.19357C2.83606 1.24072 2.81567 1.28593 2.77937 1.31927C2.74307 1.35261 2.69383 1.37134 2.6425 1.37134C2.59116 1.37134 2.54193 1.35261 2.50563 1.31927C2.46933 1.28593 2.44894 1.24072 2.44894 1.19357V0.858226H1.59812V1.19357C1.59513 1.23894 1.5734 1.28156 1.53736 1.31271C1.50132 1.34387 1.4537 1.36122 1.4042 1.36122C1.35471 1.36122 1.30708 1.34387 1.27105 1.31271C1.23501 1.28156 1.21328 1.23894 1.21029 1.19357V0.858226H0.629605C0.562286 0.858226 0.497724 0.882786 0.450122 0.926503C0.40252 0.970221 0.375778 1.02951 0.375778 1.09134V7.08199C0.375964 7.14382 0.402744 7.20308 0.450285 7.24687C0.497826 7.29065 0.562279 7.31541 0.629605 7.31575H4.19453L4.23424 7.66022H0.629605C0.462804 7.66004 0.302877 7.59916 0.184864 7.4909C0.0668514 7.38264 0.000375152 7.23583 0 7.08264L0 1.09199C0.000373764 0.938681 0.0668045 0.791739 0.184777 0.683271C0.30275 0.574803 0.462674 0.513628 0.629605 0.513112ZM1.44214 6.14367C1.39231 6.14367 1.34451 6.12549 1.30928 6.09313C1.27404 6.06077 1.25425 6.01688 1.25425 5.97111C1.25425 5.92535 1.27404 5.88146 1.30928 5.8491C1.34451 5.81674 1.39231 5.79856 1.44214 5.79856H4.73055L4.5696 6.14367H1.44214ZM1.44214 5.00545C1.39231 5.00545 1.34451 4.98727 1.30928 4.95491C1.27404 4.92255 1.25425 4.87866 1.25425 4.83289C1.25425 4.78713 1.27404 4.74324 1.30928 4.71088C1.34451 4.67851 1.39231 4.66033 1.44214 4.66033H5.16021C5.19189 4.66046 5.22297 4.66833 5.25026 4.68312L5.09994 5.0087L1.44214 5.00545ZM1.44214 3.86722C1.39231 3.86722 1.34451 3.84904 1.30928 3.81668C1.27404 3.78432 1.25425 3.74043 1.25425 3.69467C1.25425 3.6489 1.27404 3.60501 1.30928 3.57265C1.34451 3.54029 1.39231 3.52211 1.44214 3.52211H5.16021C5.21004 3.52211 5.25783 3.54029 5.29307 3.57265C5.3283 3.60501 5.3481 3.6489 5.3481 3.69467C5.3481 3.74043 5.3283 3.78432 5.29307 3.81668C5.25783 3.84904 5.21004 3.86722 5.16021 3.86722H1.44214ZM1.44214 2.729C1.39231 2.729 1.34451 2.71082 1.30928 2.67846C1.27404 2.6461 1.25425 2.60221 1.25425 2.55644C1.25425 2.51068 1.27404 2.46679 1.30928 2.43443C1.34451 2.40207 1.39231 2.38389 1.44214 2.38389H5.16021C5.21004 2.38389 5.25783 2.40207 5.29307 2.43443C5.3283 2.46679 5.3481 2.51068 5.3481 2.55644C5.3481 2.60221 5.3283 2.6461 5.29307 2.67846C5.25783 2.71082 5.21004 2.729 5.16021 2.729H1.44214ZM5.74302 7.46227L5.30414 7.78784C4.96027 8.0431 4.99501 8.11733 4.94963 7.73054L4.87873 7.12236L6.91573 2.74658L7.77931 3.08649L5.74302 7.46227ZM5.02763 7.18162L5.59484 7.40431L5.30485 7.61854C5.07867 7.78654 5.10136 7.83473 5.07229 7.58143L5.0255 7.18162H5.02763Z" fill="black"/>
</svg>
