<svg width="22" height="22" viewBox="0 0 22 22" fill="none" xmlns="http://www.w3.org/2000/svg">
<g clip-path="url(#clip0_1278_1929)">
<path d="M21.45 3.66699H0.55C0.2475 3.66699 0 3.91144 0 4.2102V17.7905C0 18.0892 0.2475 18.3337 0.55 18.3337H21.45C21.7525 18.3337 22 18.0892 22 17.7905V4.2102C22 3.91144 21.7525 3.66699 21.45 3.66699ZM20.13 4.75341L11 13.7707L1.87 4.75341H20.13ZM1.1 5.51391L6.655 11.0003L1.1 16.4867V5.51391ZM1.8975 17.2472L7.425 11.788L10.615 14.9386C10.835 15.1559 11.165 15.1559 11.385 14.9386L14.575 11.788L20.1025 17.2472H1.8975ZM20.9 16.4867L15.345 11.0003L20.9 5.51391V16.4867Z" fill="white"/>
<path d="M176.88 -112.2V258.28H-215.6V-112.2H176.88ZM178.64 -113.96H-217.36V260.04H178.64V-113.96Z" fill="#0000FF"/>
</g>
<defs>
<clipPath id="clip0_1278_1929">
<rect width="22" height="22" fill="white"/>
</clipPath>
</defs>
</svg>
