<svg width="233" height="207" viewBox="0 0 233 207" fill="none" xmlns="http://www.w3.org/2000/svg">
<g filter="url(#filter0_d_1278_2115)">
<path d="M125.955 130.319V71.5493H152.279C157.672 71.5493 162.196 72.3337 165.852 73.9024C169.531 75.4711 172.308 77.6711 174.181 80.5024C176.078 83.3147 177.026 86.5956 177.026 90.3452C177.026 94.1139 176.066 97.3852 174.147 100.159C172.25 102.914 169.451 105.047 165.749 106.558C162.048 108.051 157.5 108.797 152.108 108.797H133.359V99.9583H150.394C153.547 99.9583 156.129 99.5948 158.14 98.8679C160.151 98.1218 161.636 97.0409 162.596 95.6252C163.579 94.1904 164.07 92.4304 164.07 90.3452C164.07 88.2599 163.579 86.4808 162.596 85.0077C161.613 83.5155 160.117 82.3868 158.106 81.6216C156.095 80.8372 153.501 80.4451 150.325 80.4451H138.671V130.319H125.955ZM162.219 103.689L179.597 130.319H165.407L148.337 103.689H162.219Z" fill="#407BFF"/>
<path d="M64.2568 71.4917H79.8181L100.658 114.076H101.481L122.32 71.4917H137.882V130.261H125.679V89.8858H125.028L105.628 130.089H96.5105L77.1103 89.7997H76.4591V130.261H64.2568V71.4917Z" fill="white"/>
</g>
<g filter="url(#filter1_d_1278_2115)">
<path d="M192.197 83.5694L115.661 24.2038L39.1246 83.5694V59.3795L115.661 0L192.197 59.3656V83.5694Z" fill="white"/>
</g>
<g filter="url(#filter2_d_1278_2115)">
<path d="M108.63 40.5435H115.249V47.1628H108.63V40.5435Z" fill="#407BFF"/>
<path d="M116.902 40.5435H123.521V47.1628H116.902V40.5435Z" fill="#407BFF"/>
<path d="M108.63 48.8184H115.249V55.4377H108.63V48.8184Z" fill="#407BFF"/>
<path d="M116.902 48.8184H123.521V55.4377H116.902V48.8184Z" fill="#407BFF"/>
</g>
<g filter="url(#filter3_d_1278_2115)">
<path d="M224.979 188.158V159.267H229V188.158H224.979Z" fill="white"/>
</g>
<g filter="url(#filter4_d_1278_2115)">
<path d="M202.942 188.548C200.938 188.548 199.155 188.092 197.593 187.181C196.032 186.244 194.795 184.969 193.884 183.355C192.999 181.741 192.557 179.906 192.557 177.85C192.557 175.794 193.012 173.972 193.923 172.384C194.86 170.771 196.136 169.508 197.749 168.597C199.363 167.686 201.198 167.231 203.254 167.231C204.504 167.231 205.649 167.4 206.69 167.738C207.757 168.051 208.681 168.493 209.462 169.066C210.243 169.639 210.867 170.276 211.336 170.979C211.804 171.656 212.065 172.371 212.117 173.126L211.141 172.97V167.66H215.162V188.157H211.141V182.965L212 182.926C211.895 183.576 211.583 184.24 211.063 184.917C210.568 185.567 209.891 186.166 209.032 186.713C208.2 187.259 207.263 187.702 206.221 188.04C205.18 188.378 204.087 188.548 202.942 188.548ZM203.957 184.839C205.389 184.839 206.651 184.539 207.744 183.941C208.863 183.342 209.735 182.522 210.36 181.481C210.985 180.414 211.297 179.204 211.297 177.85C211.297 176.549 210.985 175.378 210.36 174.336C209.735 173.295 208.863 172.476 207.744 171.877C206.651 171.252 205.389 170.94 203.957 170.94C202.526 170.94 201.263 171.252 200.17 171.877C199.077 172.476 198.218 173.295 197.593 174.336C196.969 175.378 196.656 176.549 196.656 177.85C196.656 179.204 196.969 180.414 197.593 181.481C198.218 182.522 199.077 183.342 200.17 183.941C201.263 184.539 202.526 184.839 203.957 184.839Z" fill="white"/>
</g>
<g filter="url(#filter5_d_1278_2115)">
<path d="M177.083 188.158V161.961H181.104V188.158H177.083ZM171.891 171.566V167.661H187.117V171.566H171.891Z" fill="white"/>
</g>
<g filter="url(#filter6_d_1278_2115)">
<path d="M144.611 188.157V167.66H148.633V172.502L147.618 172.814C148.008 171.877 148.62 170.992 149.453 170.159C150.285 169.3 151.275 168.597 152.42 168.051C153.591 167.504 154.827 167.231 156.129 167.231C157.925 167.231 159.421 167.582 160.618 168.285C161.842 168.962 162.753 169.938 163.351 171.213C163.95 172.489 164.249 174.024 164.249 175.82V188.157H160.228V176.249C160.228 175.078 160.007 174.102 159.564 173.321C159.148 172.515 158.536 171.916 157.729 171.525C156.949 171.109 156.025 170.914 154.957 170.94C154.046 170.94 153.201 171.096 152.42 171.408C151.665 171.721 151.001 172.137 150.429 172.658C149.856 173.178 149.414 173.764 149.101 174.415C148.789 175.039 148.633 175.69 148.633 176.367V188.157H146.642C146.173 188.157 145.77 188.157 145.431 188.157C145.093 188.157 144.82 188.157 144.611 188.157Z" fill="white"/>
</g>
<g filter="url(#filter7_d_1278_2115)">
<path d="M126.118 188.547C123.776 188.547 121.694 188.105 119.872 187.22C118.05 186.309 116.618 185.073 115.577 183.511C114.562 181.95 114.055 180.154 114.055 178.123C114.055 176.458 114.354 174.961 114.953 173.634C115.551 172.306 116.371 171.161 117.412 170.198C118.479 169.235 119.729 168.493 121.16 167.973C122.592 167.452 124.127 167.192 125.767 167.192C127.251 167.192 128.63 167.439 129.905 167.934C131.207 168.428 132.339 169.118 133.302 170.003C134.265 170.888 135.007 171.942 135.527 173.165C136.074 174.362 136.334 175.69 136.308 177.147L136.269 179.021H117.334L116.436 175.82H132.794L132.209 176.328V175.391C132.105 174.532 131.74 173.764 131.116 173.087C130.491 172.41 129.71 171.877 128.773 171.486C127.836 171.096 126.834 170.901 125.767 170.901C124.205 170.901 122.839 171.148 121.668 171.643C120.522 172.137 119.624 172.905 118.974 173.946C118.349 174.961 118.037 176.262 118.037 177.85C118.037 179.282 118.401 180.518 119.13 181.559C119.859 182.6 120.874 183.407 122.175 183.98C123.477 184.552 124.973 184.839 126.665 184.839C128.122 184.839 129.385 184.63 130.452 184.214C131.519 183.797 132.534 183.225 133.497 182.496L135.41 185.424C134.733 185.997 133.888 186.53 132.872 187.025C131.857 187.493 130.764 187.871 129.593 188.157C128.448 188.417 127.29 188.547 126.118 188.547Z" fill="white"/>
</g>
<g filter="url(#filter8_d_1278_2115)">
<path d="M85.0964 188.157V160.828H98.4486C100.036 160.828 101.494 161.206 102.821 161.96C104.149 162.715 105.203 163.743 105.984 165.045C106.764 166.346 107.155 167.804 107.155 169.417C107.155 170.953 106.738 172.371 105.905 173.673C105.099 174.974 104.005 176.015 102.626 176.796C101.273 177.577 99.776 177.967 98.1362 177.967H89.3129V188.157H85.0964ZM103.29 188.157L95.4033 175.82L99.815 174.844L108.482 188.196L103.29 188.157ZM89.3129 173.907H98.2143C99.0732 173.907 99.8411 173.712 100.518 173.321C101.221 172.905 101.767 172.358 102.157 171.682C102.574 170.979 102.782 170.211 102.782 169.378C102.782 168.519 102.548 167.751 102.079 167.075C101.637 166.398 101.012 165.864 100.205 165.474C99.4246 165.084 98.5397 164.888 97.5506 164.888H89.3129V173.907Z" fill="white"/>
</g>
<g filter="url(#filter9_d_1278_2115)">
<path d="M45.9418 197.137L50.6268 187.572L50.6658 190.735L39.3048 167.661H43.9898L50.2754 181.169C50.7439 182.054 51.1604 182.926 51.5247 183.785C51.8891 184.618 52.1494 185.399 52.3056 186.128L51.4857 186.284C51.772 185.555 52.0973 184.748 52.4617 183.863C52.8261 182.978 53.2295 182.028 53.672 181.013L59.2549 167.661H63.9789L54.2967 188.236L50.2364 197.137H45.9418Z" fill="white"/>
</g>
<g filter="url(#filter10_d_1278_2115)">
<path d="M4 188.157V160.828H8.13838L19.07 176.718L17.2741 176.679L28.3228 160.828H32.305V188.157H28.0885V176.796C28.0885 174.532 28.1406 172.462 28.2447 170.588C28.3748 168.688 28.583 166.788 28.8693 164.888L29.3769 166.411L19.3823 180.31H16.8056L7.00618 166.489L7.43564 164.888C7.72194 166.736 7.91715 168.597 8.02126 170.471C8.1514 172.319 8.21646 174.428 8.21646 176.796V188.157H4Z" fill="white"/>
</g>
<g filter="url(#filter11_d_1278_2115)">
<path fill-rule="evenodd" clip-rule="evenodd" d="M96.9296 64.2554C96.448 64.2554 96.0032 64.5135 95.7643 64.9317L95.7643 64.9317L93.7045 68.5363L94.6648 69.3366L94.6649 69.3367C94.688 69.3559 94.7171 69.3665 94.7473 69.3665H108.429C108.459 69.3665 108.488 69.3559 108.511 69.3367L108.511 69.3366L109.472 68.5363L107.412 64.9317L107.412 64.9316C107.173 64.5135 106.728 64.2554 106.247 64.2554H96.9296ZM112.257 69.0387L113.202 68.2507C113.663 67.8673 113.725 67.1835 113.341 66.7233C112.958 66.2632 112.274 66.201 111.814 66.5845L111.164 67.1261L109.295 63.8557C108.67 62.7616 107.507 62.0864 106.247 62.0864H96.9296C95.6696 62.0864 94.5062 62.7616 93.8811 63.8556C93.8811 63.8556 93.8811 63.8556 93.8811 63.8556L92.0122 67.1261L91.3623 66.5845C90.9021 66.201 90.2183 66.2632 89.8349 66.7233C89.4514 67.1835 89.5136 67.8673 89.9737 68.2507L90.9193 69.0387L90.3659 70.0072L91.3075 70.5452L90.3659 70.0072C89.8532 70.9044 89.5835 71.9198 89.5835 72.9532V80.1577C89.5835 81.4268 90.6123 82.4555 91.8813 82.4555H93.0947C94.3637 82.4555 95.3925 81.4268 95.3925 80.1577V80.0288H107.784V80.1577C107.784 81.4268 108.812 82.4555 110.081 82.4555H111.295C112.564 82.4555 113.593 81.4268 113.593 80.1577V72.9532C113.593 71.9197 113.323 70.9044 112.81 70.0073L112.81 70.0072L112.257 69.0387ZM110.565 70.4489L109.9 71.0027C109.9 71.0027 109.9 71.0028 109.9 71.0028C109.487 71.3471 108.966 71.5354 108.429 71.5354H94.7473C94.2099 71.5354 93.6893 71.3471 93.2763 71.0028C93.2763 71.0028 93.2762 71.0028 93.2762 71.0027L92.6116 70.4489L92.2491 71.0833C91.9236 71.6528 91.7525 72.2972 91.7525 72.9532V80.1577C91.7525 80.2289 91.8102 80.2865 91.8813 80.2865H93.0947C93.1659 80.2865 93.2235 80.2289 93.2235 80.1577V78.9443C93.2235 78.3454 93.7091 77.8599 94.308 77.8599H108.868C109.467 77.8599 109.953 78.3454 109.953 78.9443V80.1577C109.953 80.2289 110.01 80.2865 110.081 80.2865H111.295C111.366 80.2865 111.424 80.2289 111.424 80.1577V72.9532C111.424 72.2973 111.253 71.6528 110.927 71.0833C110.927 71.0833 110.927 71.0832 110.927 71.0832L110.565 70.4489ZM94.8202 64.3922L94.8227 64.3936L94.8202 64.3922C93.9806 73.0065 93.2235 73.7638 93.2235 74.6976C96.6059 73.7638 95.8488 73.0065 94.9147 73.0065C95.8488 76.3888 96.6059 75.6315 96.6059 74.6976C93.2235 75.6315 93.9806 76.3888 94.9147 76.3888M106.57 74.6976C106.57 73.7637 107.328 73.0065 108.261 73.0065C109.195 73.0065 109.953 73.7637 109.953 74.6976C109.953 75.6316 109.195 76.3888 108.261 76.3888C107.328 76.3888 106.57 75.6316 106.57 74.6976Z" fill="white"/>
<path d="M104.786 59.2866H112.552V67.052H104.786V59.2866Z" fill="white"/>
<path d="M107.213 64.623H114.979V72.3884H107.213V64.623Z" fill="white"/>
<path d="M107.213 75.788C107.213 73.9117 108.734 72.3906 110.611 72.3906C112.487 72.3906 114.008 73.9117 114.008 75.788V79.6707C114.008 81.547 112.487 83.068 110.611 83.068C108.734 83.068 107.213 81.547 107.213 79.6707V75.788Z" fill="white"/>
<path d="M112.864 80.1532C112.864 79.1825 112.864 78.6972 112.864 78.2119C112.864 76.8241 112.864 75.4746 112.864 74.3214C112.911 73.4229 112.483 72.9715 111.582 72.9672L109.701 72.9608C109.374 72.9591 109.059 73.0877 108.825 73.3185C108.591 73.5493 108.457 73.8638 108.452 74.1936L108.388 80.1149C108.099 80.1064 107.833 79.936 107.591 79.6039C105.797 77.1255 104.983 74.1617 105.149 70.7124C105.196 69.7628 105.442 69.0559 105.889 68.5917C106.101 68.3703 106.116 68.134 105.933 67.8827C105.704 67.5676 105.553 67.2227 105.481 66.8479C105.387 66.388 105.16 66.3093 104.798 66.6116C104.522 66.8501 104.212 66.9203 103.867 66.8224C103.442 66.7032 103.408 66.5094 103.765 66.2411C104.216 65.9047 104.698 65.6748 105.213 65.5513C106.509 65.2447 106.528 64.8721 105.27 64.4334L102.707 63.5328C102.611 63.4997 102.527 63.4389 102.465 63.358C102.403 63.2771 102.366 63.1798 102.36 63.0781C102.353 62.9765 102.376 62.8751 102.427 62.7867C102.477 62.6983 102.552 62.6267 102.643 62.5811L104.18 61.8018C104.327 61.7268 104.498 61.7108 104.656 61.757C104.815 61.8033 104.95 61.9084 105.034 62.0509C105.31 62.515 105.508 63.0048 105.627 63.52C105.774 64.146 106.437 64.3696 107.011 64.229C107.067 64.2154 107.119 64.1883 107.162 64.15C107.206 64.1118 107.239 64.0636 107.26 64.0096C107.28 63.9556 107.288 63.8974 107.281 63.8399C107.274 63.7825 107.254 63.7275 107.221 63.6797L106.692 62.894C106.488 62.596 106.533 62.3383 106.826 62.1211C109.274 60.2943 111.808 60.2794 114.426 62.0764C114.498 62.127 114.559 62.1923 114.604 62.2682C114.649 62.3441 114.677 62.4287 114.686 62.5164C114.696 62.6041 114.687 62.6928 114.66 62.7767C114.632 62.8605 114.587 62.9376 114.528 63.0026L114.12 63.4434C113.776 63.8224 113.852 64.0694 114.349 64.1843C115.561 64.4718 115.873 63.0665 116.103 62.2106C116.129 62.1093 116.178 62.0152 116.246 61.9355C116.314 61.8557 116.398 61.7923 116.494 61.75C116.59 61.7076 116.694 61.6874 116.798 61.6908C116.902 61.6943 117.005 61.7213 117.097 61.7698L118.577 62.5555C118.668 62.605 118.742 62.6795 118.792 62.7703C118.842 62.8611 118.865 62.9643 118.859 63.0678C118.852 63.1712 118.816 63.2706 118.755 63.3541C118.693 63.4377 118.609 63.5019 118.513 63.5392L115.778 64.5676C115.038 64.8444 115.034 65.1318 115.765 65.4299L117.531 66.1517C117.701 66.2198 117.758 66.3412 117.703 66.5158L117.633 66.7266C117.62 66.7661 117.599 66.8027 117.572 66.8341C117.545 66.8655 117.512 66.8912 117.475 66.9097C117.438 66.9281 117.398 66.9389 117.358 66.9415C117.317 66.9441 117.276 66.9383 117.238 66.9246L116.141 66.5349C115.907 66.454 115.754 66.5286 115.682 66.7585L115.261 68.0807C115.18 68.3277 115.236 68.5428 115.427 68.7259L115.637 68.9303C115.79 69.0751 115.886 69.2539 115.924 69.4668C116.528 73.1503 115.79 76.5166 113.712 79.5656C113.448 79.9573 113.242 80.1532 112.864 80.1532ZM110.333 67.5633L107.833 65.4874C107.735 65.4061 107.61 65.3654 107.483 65.3737C107.356 65.382 107.237 65.4387 107.151 65.5321L106.909 65.7876C106.79 65.9196 106.76 66.0708 106.819 66.2411C107.33 67.6528 109.587 71.9069 111.633 70.2844C112.679 69.4541 114.464 67.3845 114.324 65.9154C114.315 65.819 114.28 65.7267 114.223 65.6485C114.167 65.5703 114.09 65.5089 114.001 65.4709C113.912 65.433 113.814 65.4198 113.719 65.4328C113.623 65.4458 113.532 65.4845 113.457 65.5449L110.894 67.5697C110.702 67.7188 110.515 67.7166 110.333 67.5633Z" fill="#00B0DC"/>
<path fill-rule="evenodd" clip-rule="evenodd" d="M112.146 80.8775V74.3039L112.147 74.2851C112.165 73.9441 112.085 73.8351 112.058 73.8072C112.032 73.7791 111.927 73.6932 111.585 73.6915C111.584 73.6915 111.585 73.6915 111.585 73.6915L109.703 73.6851C109.567 73.6844 109.436 73.7375 109.338 73.8345C109.239 73.9314 109.182 74.0642 109.18 74.2047C109.18 74.2051 109.18 74.2056 109.18 74.206L109.108 80.8606L108.372 80.8389C107.776 80.8213 107.327 80.4638 107.012 80.0313L107.01 80.0291C105.108 77.4008 104.259 74.2699 104.432 70.679L104.432 70.6782C104.481 69.6917 104.73 68.8286 105.276 68.1979C105.112 67.9534 104.983 67.6932 104.89 67.4186C104.519 67.6027 104.104 67.6408 103.676 67.5194C103.533 67.4794 103.368 67.4188 103.22 67.3177C103.069 67.2147 102.87 67.0223 102.816 66.7139C102.762 66.4083 102.881 66.1617 102.984 66.0154C103.086 65.8695 103.217 65.7539 103.336 65.6644L103.338 65.6631C103.74 65.3628 104.17 65.1314 104.627 64.9732L102.474 64.2168C102.244 64.1371 102.043 63.9915 101.895 63.7983C101.747 63.6044 101.66 63.3711 101.643 63.1278C101.627 62.8844 101.683 62.6416 101.804 62.4297C101.924 62.2182 102.105 62.0468 102.322 61.9371L103.857 61.1588C103.857 61.1589 103.857 61.1587 103.857 61.1588C104.168 61.0005 104.528 60.9665 104.864 61.0643C105.199 61.1619 105.484 61.3834 105.661 61.6833C105.754 61.8395 105.839 61.9986 105.917 62.1604C106.016 61.8877 106.207 61.6852 106.399 61.5423C107.721 60.5565 109.113 60.0267 110.563 60.0182C112.011 60.0097 113.44 60.5209 114.84 61.4816L114.846 61.4854C115.002 61.595 115.133 61.7368 115.231 61.9012C115.287 61.9959 115.331 62.0969 115.362 62.2017C115.369 62.1758 115.376 62.1498 115.383 62.1236C115.392 62.0914 115.4 62.059 115.409 62.0265C115.463 61.8212 115.562 61.6306 115.7 61.4687C115.838 61.3061 116.011 61.1767 116.206 61.0903C116.401 61.0038 116.614 60.9625 116.827 60.9695C117.04 60.9766 117.249 61.0317 117.438 61.1308L117.442 61.1326L118.927 61.9217C119.14 62.0373 119.314 62.2113 119.431 62.4229C119.547 62.6344 119.601 62.8749 119.585 63.1158C119.57 63.3568 119.485 63.5883 119.343 63.7831C119.2 63.9779 119.004 64.1278 118.778 64.2149L118.772 64.2173L116.657 65.0126L117.805 65.4819C117.806 65.4823 117.807 65.4826 117.808 65.483C117.999 65.5602 118.23 65.7097 118.36 65.9861C118.492 66.2639 118.46 66.5382 118.397 66.7353L118.396 66.7403L118.324 66.9561C118.324 66.9561 118.324 66.956 118.324 66.9561C118.281 67.0848 118.214 67.2043 118.125 67.3074C118.036 67.4106 117.927 67.4958 117.804 67.5574C117.681 67.619 117.546 67.6557 117.408 67.6644C117.27 67.6731 117.131 67.6537 117 67.607C117 67.6069 117 67.6068 116.999 67.6066L116.26 67.3439L115.973 68.2449L116.143 68.4101C116.409 68.6635 116.576 68.9815 116.641 69.3403L116.642 69.3458L116.643 69.3512C117.276 73.2148 116.499 76.7684 114.316 79.9722C114.176 80.1802 114.002 80.4132 113.767 80.5879C113.502 80.7847 113.203 80.8775 112.869 80.8775H112.146ZM115.91 67.2194L116.146 66.5363L115.91 67.2194ZM117.243 66.9259C117.281 66.9396 117.322 66.9454 117.363 66.9428C117.403 66.9403 117.443 66.9294 117.48 66.911C117.517 66.8925 117.55 66.8669 117.577 66.8354C117.604 66.804 117.625 66.7674 117.638 66.7279L117.708 66.5171C117.763 66.3425 117.706 66.2211 117.536 66.153L115.77 65.4312C115.255 65.2211 115.105 65.0163 115.32 64.8168C115.396 64.7467 115.516 64.6771 115.683 64.6083C115.714 64.5951 115.748 64.582 115.783 64.5689L118.518 63.5405C118.614 63.5032 118.698 63.439 118.76 63.3554C118.821 63.2719 118.857 63.1725 118.864 63.0691C118.871 62.9656 118.847 62.8624 118.798 62.7716C118.748 62.6808 118.673 62.6063 118.582 62.5568L117.102 61.7711C117.01 61.7226 116.908 61.6956 116.803 61.6921C116.699 61.6887 116.595 61.7089 116.499 61.7513C116.404 61.7936 116.319 61.857 116.251 61.9368C116.183 62.0165 116.134 62.1106 116.108 62.2119C116.098 62.2499 116.087 62.289 116.077 62.329C115.929 62.8851 115.737 63.6127 115.306 63.9836C115.205 64.0709 115.09 64.1385 114.96 64.1794C114.788 64.2336 114.588 64.241 114.354 64.1856C113.857 64.0707 113.781 63.8237 114.125 63.4447L114.533 63.0039C114.592 62.9389 114.637 62.8618 114.665 62.778C114.692 62.6941 114.701 62.6054 114.691 62.5177C114.682 62.43 114.654 62.3454 114.609 62.2695C114.564 62.1937 114.503 62.1283 114.431 62.0777C111.813 60.2807 109.279 60.2956 106.831 62.1225C106.538 62.3396 106.493 62.5973 106.697 62.8953L107.226 63.681C107.259 63.7288 107.279 63.7838 107.286 63.8412C107.293 63.8987 107.285 63.9569 107.265 64.0109C107.244 64.065 107.211 64.1131 107.167 64.1513C107.124 64.1896 107.072 64.2167 107.016 64.2303C106.858 64.2691 106.693 64.2802 106.533 64.2627C106.231 64.2297 105.951 64.094 105.778 63.8503C105.712 63.7567 105.662 63.6471 105.632 63.5213C105.513 63.0061 105.316 62.5164 105.039 62.0522C104.955 61.9097 104.82 61.8046 104.661 61.7583C104.503 61.7121 104.332 61.7281 104.185 61.8031L102.648 62.5824C102.557 62.628 102.482 62.6996 102.432 62.788C102.381 62.8764 102.358 62.9778 102.365 63.0794C102.371 63.1811 102.408 63.2784 102.47 63.3593C102.532 63.4402 102.616 63.501 102.712 63.5341L105.275 64.4348C105.295 64.4418 105.315 64.4488 105.335 64.4558C105.798 64.6219 106.076 64.7784 106.169 64.9253C106.317 65.1584 106 65.3675 105.218 65.5526C104.703 65.6761 104.221 65.906 103.77 66.2424C103.413 66.5107 103.447 66.7045 103.872 66.8237C104.217 66.9216 104.527 66.8514 104.803 66.6129C105.165 66.3106 105.392 66.3893 105.486 66.8492C105.558 67.224 105.709 67.5689 105.938 67.884C106.121 68.1353 106.106 68.3716 105.894 68.5931C105.447 69.0572 105.201 69.7641 105.154 70.7137C104.988 74.163 105.802 77.1268 107.596 79.6052C107.622 79.6406 107.648 79.6743 107.674 79.706C107.895 79.9719 108.135 80.1086 108.393 80.1162L108.457 74.1949C108.462 73.8651 108.596 73.5507 108.83 73.3198C109.064 73.089 109.379 72.9604 109.706 72.9621L111.587 72.9685C112.488 72.9728 112.916 73.4242 112.869 74.3227V80.1545C113.186 80.1545 113.382 80.0172 113.592 79.7425C113.633 79.6891 113.674 79.6306 113.717 79.5669C115.795 76.5179 116.533 73.1516 115.929 69.4681C115.891 69.2552 115.795 69.0764 115.642 68.9316L115.432 68.7272C115.241 68.5441 115.185 68.329 115.266 68.082L115.687 66.7598C115.759 66.5299 115.912 66.4553 116.146 66.5363L117.243 66.9259ZM107.156 65.5334L106.914 65.7889C106.795 65.9209 106.765 66.0721 106.825 66.2424C107.335 67.6541 109.592 71.9082 111.638 70.2858C112.684 69.4554 114.469 67.3858 114.329 65.9167C114.32 65.8203 114.285 65.7281 114.229 65.6498C114.172 65.5716 114.095 65.5102 114.006 65.4722C113.917 65.4343 113.819 65.4211 113.724 65.4341C113.628 65.4471 113.537 65.4859 113.462 65.5462L110.899 67.571C110.707 67.7201 110.52 67.718 110.338 67.5647L107.838 65.4887C107.74 65.4074 107.615 65.3667 107.488 65.375C107.361 65.3833 107.243 65.44 107.156 65.5334ZM107.539 66.1801L107.564 66.1538C107.556 66.1341 107.549 66.1148 107.542 66.096C107.54 66.0961 107.538 66.0963 107.536 66.0964C107.529 66.0968 107.523 66.097 107.517 66.0969C107.516 66.1105 107.515 66.1252 107.512 66.1409C107.511 66.1456 107.51 66.1502 107.509 66.1547L107.539 66.1801ZM107.38 66.0482C107.379 66.0472 107.378 66.046 107.376 66.0449L107.38 66.0482ZM107.251 66.0933L107.239 66.0975L107.235 66.0939L107.247 66.0896L107.251 66.0933Z" fill="white"/>
<path d="M109.161 75.2998C109.161 74.4956 109.813 73.8438 110.617 73.8438C111.421 73.8438 112.073 74.4956 112.073 75.2998V83.0651C112.073 83.8693 111.421 84.5212 110.617 84.5212C109.813 84.5212 109.161 83.8693 109.161 83.0651V75.2998Z" fill="white"/>
</g>
<g filter="url(#filter12_d_1278_2115)">
<mask id="mask0_1278_2115" style="mask-type:alpha" maskUnits="userSpaceOnUse" x="54" y="58" width="127" height="98">
<path d="M55.3582 122.898C48.8242 97.6708 71.2068 70.0508 105.351 61.2073C139.495 52.3639 172.472 65.6459 179.006 90.8736C185.54 116.101 163.157 143.721 129.013 152.565C94.8685 161.408 61.8922 148.126 55.3582 122.898Z" fill="#D9D9D9"/>
</mask>
<g mask="url(#mask0_1278_2115)">
<path fill-rule="evenodd" clip-rule="evenodd" d="M64.4195 81.3542C56.1321 91.5808 53.004 103.012 55.7044 113.438C58.4049 123.865 66.6889 132.34 78.8987 137.258C91.1065 142.175 106.824 143.304 123.067 139.097C139.309 134.89 152.503 126.273 160.789 116.048C169.076 105.822 172.205 94.3904 169.504 83.9641C166.804 73.5378 158.52 65.0623 146.31 60.1445C134.102 55.2275 118.384 54.0987 102.142 58.3056C85.8992 62.5125 72.7056 71.1293 64.4195 81.3542ZM100.51 52.0066C65.6065 61.0467 42.7261 89.2811 49.4054 115.07C56.0847 140.859 89.7945 154.436 124.698 145.396C159.602 136.356 182.483 108.121 175.803 82.3326C169.124 56.5439 135.414 42.9664 100.51 52.0066Z" fill="white"/>
</g>
</g>
<defs>
<filter id="filter0_d_1278_2115" x="60.2568" y="71.4917" width="123.34" height="66.8271" filterUnits="userSpaceOnUse" color-interpolation-filters="sRGB">
<feFlood flood-opacity="0" result="BackgroundImageFix"/>
<feColorMatrix in="SourceAlpha" type="matrix" values="0 0 0 0 0 0 0 0 0 0 0 0 0 0 0 0 0 0 127 0" result="hardAlpha"/>
<feOffset dy="4"/>
<feGaussianBlur stdDeviation="2"/>
<feComposite in2="hardAlpha" operator="out"/>
<feColorMatrix type="matrix" values="0 0 0 0 0 0 0 0 0 0 0 0 0 0 0 0 0 0 0.25 0"/>
<feBlend mode="normal" in2="BackgroundImageFix" result="effect1_dropShadow_1278_2115"/>
<feBlend mode="normal" in="SourceGraphic" in2="effect1_dropShadow_1278_2115" result="shape"/>
</filter>
<filter id="filter1_d_1278_2115" x="35.1246" y="0" width="161.073" height="91.5693" filterUnits="userSpaceOnUse" color-interpolation-filters="sRGB">
<feFlood flood-opacity="0" result="BackgroundImageFix"/>
<feColorMatrix in="SourceAlpha" type="matrix" values="0 0 0 0 0 0 0 0 0 0 0 0 0 0 0 0 0 0 127 0" result="hardAlpha"/>
<feOffset dy="4"/>
<feGaussianBlur stdDeviation="2"/>
<feComposite in2="hardAlpha" operator="out"/>
<feColorMatrix type="matrix" values="0 0 0 0 0 0 0 0 0 0 0 0 0 0 0 0 0 0 0.25 0"/>
<feBlend mode="normal" in2="BackgroundImageFix" result="effect1_dropShadow_1278_2115"/>
<feBlend mode="normal" in="SourceGraphic" in2="effect1_dropShadow_1278_2115" result="shape"/>
</filter>
<filter id="filter2_d_1278_2115" x="104.63" y="40.5435" width="22.8918" height="22.894" filterUnits="userSpaceOnUse" color-interpolation-filters="sRGB">
<feFlood flood-opacity="0" result="BackgroundImageFix"/>
<feColorMatrix in="SourceAlpha" type="matrix" values="0 0 0 0 0 0 0 0 0 0 0 0 0 0 0 0 0 0 127 0" result="hardAlpha"/>
<feOffset dy="4"/>
<feGaussianBlur stdDeviation="2"/>
<feComposite in2="hardAlpha" operator="out"/>
<feColorMatrix type="matrix" values="0 0 0 0 0 0 0 0 0 0 0 0 0 0 0 0 0 0 0.25 0"/>
<feBlend mode="normal" in2="BackgroundImageFix" result="effect1_dropShadow_1278_2115"/>
<feBlend mode="normal" in="SourceGraphic" in2="effect1_dropShadow_1278_2115" result="shape"/>
</filter>
<filter id="filter3_d_1278_2115" x="220.979" y="159.267" width="12.0212" height="36.8906" filterUnits="userSpaceOnUse" color-interpolation-filters="sRGB">
<feFlood flood-opacity="0" result="BackgroundImageFix"/>
<feColorMatrix in="SourceAlpha" type="matrix" values="0 0 0 0 0 0 0 0 0 0 0 0 0 0 0 0 0 0 127 0" result="hardAlpha"/>
<feOffset dy="4"/>
<feGaussianBlur stdDeviation="2"/>
<feComposite in2="hardAlpha" operator="out"/>
<feColorMatrix type="matrix" values="0 0 0 0 0 0 0 0 0 0 0 0 0 0 0 0 0 0 0.25 0"/>
<feBlend mode="normal" in2="BackgroundImageFix" result="effect1_dropShadow_1278_2115"/>
<feBlend mode="normal" in="SourceGraphic" in2="effect1_dropShadow_1278_2115" result="shape"/>
</filter>
<filter id="filter4_d_1278_2115" x="188.557" y="167.231" width="30.605" height="29.3164" filterUnits="userSpaceOnUse" color-interpolation-filters="sRGB">
<feFlood flood-opacity="0" result="BackgroundImageFix"/>
<feColorMatrix in="SourceAlpha" type="matrix" values="0 0 0 0 0 0 0 0 0 0 0 0 0 0 0 0 0 0 127 0" result="hardAlpha"/>
<feOffset dy="4"/>
<feGaussianBlur stdDeviation="2"/>
<feComposite in2="hardAlpha" operator="out"/>
<feColorMatrix type="matrix" values="0 0 0 0 0 0 0 0 0 0 0 0 0 0 0 0 0 0 0.25 0"/>
<feBlend mode="normal" in2="BackgroundImageFix" result="effect1_dropShadow_1278_2115"/>
<feBlend mode="normal" in="SourceGraphic" in2="effect1_dropShadow_1278_2115" result="shape"/>
</filter>
<filter id="filter5_d_1278_2115" x="167.891" y="161.961" width="23.2261" height="34.1968" filterUnits="userSpaceOnUse" color-interpolation-filters="sRGB">
<feFlood flood-opacity="0" result="BackgroundImageFix"/>
<feColorMatrix in="SourceAlpha" type="matrix" values="0 0 0 0 0 0 0 0 0 0 0 0 0 0 0 0 0 0 127 0" result="hardAlpha"/>
<feOffset dy="4"/>
<feGaussianBlur stdDeviation="2"/>
<feComposite in2="hardAlpha" operator="out"/>
<feColorMatrix type="matrix" values="0 0 0 0 0 0 0 0 0 0 0 0 0 0 0 0 0 0 0.25 0"/>
<feBlend mode="normal" in2="BackgroundImageFix" result="effect1_dropShadow_1278_2115"/>
<feBlend mode="normal" in="SourceGraphic" in2="effect1_dropShadow_1278_2115" result="shape"/>
</filter>
<filter id="filter6_d_1278_2115" x="140.611" y="167.231" width="27.6378" height="28.9263" filterUnits="userSpaceOnUse" color-interpolation-filters="sRGB">
<feFlood flood-opacity="0" result="BackgroundImageFix"/>
<feColorMatrix in="SourceAlpha" type="matrix" values="0 0 0 0 0 0 0 0 0 0 0 0 0 0 0 0 0 0 127 0" result="hardAlpha"/>
<feOffset dy="4"/>
<feGaussianBlur stdDeviation="2"/>
<feComposite in2="hardAlpha" operator="out"/>
<feColorMatrix type="matrix" values="0 0 0 0 0 0 0 0 0 0 0 0 0 0 0 0 0 0 0.25 0"/>
<feBlend mode="normal" in2="BackgroundImageFix" result="effect1_dropShadow_1278_2115"/>
<feBlend mode="normal" in="SourceGraphic" in2="effect1_dropShadow_1278_2115" result="shape"/>
</filter>
<filter id="filter7_d_1278_2115" x="110.055" y="167.192" width="30.2554" height="29.3555" filterUnits="userSpaceOnUse" color-interpolation-filters="sRGB">
<feFlood flood-opacity="0" result="BackgroundImageFix"/>
<feColorMatrix in="SourceAlpha" type="matrix" values="0 0 0 0 0 0 0 0 0 0 0 0 0 0 0 0 0 0 127 0" result="hardAlpha"/>
<feOffset dy="4"/>
<feGaussianBlur stdDeviation="2"/>
<feComposite in2="hardAlpha" operator="out"/>
<feColorMatrix type="matrix" values="0 0 0 0 0 0 0 0 0 0 0 0 0 0 0 0 0 0 0.25 0"/>
<feBlend mode="normal" in2="BackgroundImageFix" result="effect1_dropShadow_1278_2115"/>
<feBlend mode="normal" in="SourceGraphic" in2="effect1_dropShadow_1278_2115" result="shape"/>
</filter>
<filter id="filter8_d_1278_2115" x="81.0964" y="160.828" width="31.3857" height="35.3682" filterUnits="userSpaceOnUse" color-interpolation-filters="sRGB">
<feFlood flood-opacity="0" result="BackgroundImageFix"/>
<feColorMatrix in="SourceAlpha" type="matrix" values="0 0 0 0 0 0 0 0 0 0 0 0 0 0 0 0 0 0 127 0" result="hardAlpha"/>
<feOffset dy="4"/>
<feGaussianBlur stdDeviation="2"/>
<feComposite in2="hardAlpha" operator="out"/>
<feColorMatrix type="matrix" values="0 0 0 0 0 0 0 0 0 0 0 0 0 0 0 0 0 0 0.25 0"/>
<feBlend mode="normal" in2="BackgroundImageFix" result="effect1_dropShadow_1278_2115"/>
<feBlend mode="normal" in="SourceGraphic" in2="effect1_dropShadow_1278_2115" result="shape"/>
</filter>
<filter id="filter9_d_1278_2115" x="35.3048" y="167.661" width="32.6741" height="37.4761" filterUnits="userSpaceOnUse" color-interpolation-filters="sRGB">
<feFlood flood-opacity="0" result="BackgroundImageFix"/>
<feColorMatrix in="SourceAlpha" type="matrix" values="0 0 0 0 0 0 0 0 0 0 0 0 0 0 0 0 0 0 127 0" result="hardAlpha"/>
<feOffset dy="4"/>
<feGaussianBlur stdDeviation="2"/>
<feComposite in2="hardAlpha" operator="out"/>
<feColorMatrix type="matrix" values="0 0 0 0 0 0 0 0 0 0 0 0 0 0 0 0 0 0 0.25 0"/>
<feBlend mode="normal" in2="BackgroundImageFix" result="effect1_dropShadow_1278_2115"/>
<feBlend mode="normal" in="SourceGraphic" in2="effect1_dropShadow_1278_2115" result="shape"/>
</filter>
<filter id="filter10_d_1278_2115" x="0" y="160.828" width="36.3049" height="35.3291" filterUnits="userSpaceOnUse" color-interpolation-filters="sRGB">
<feFlood flood-opacity="0" result="BackgroundImageFix"/>
<feColorMatrix in="SourceAlpha" type="matrix" values="0 0 0 0 0 0 0 0 0 0 0 0 0 0 0 0 0 0 127 0" result="hardAlpha"/>
<feOffset dy="4"/>
<feGaussianBlur stdDeviation="2"/>
<feComposite in2="hardAlpha" operator="out"/>
<feColorMatrix type="matrix" values="0 0 0 0 0 0 0 0 0 0 0 0 0 0 0 0 0 0 0.25 0"/>
<feBlend mode="normal" in2="BackgroundImageFix" result="effect1_dropShadow_1278_2115"/>
<feBlend mode="normal" in="SourceGraphic" in2="effect1_dropShadow_1278_2115" result="shape"/>
</filter>
<filter id="filter11_d_1278_2115" x="85.5835" y="59.2866" width="38.0044" height="33.2344" filterUnits="userSpaceOnUse" color-interpolation-filters="sRGB">
<feFlood flood-opacity="0" result="BackgroundImageFix"/>
<feColorMatrix in="SourceAlpha" type="matrix" values="0 0 0 0 0 0 0 0 0 0 0 0 0 0 0 0 0 0 127 0" result="hardAlpha"/>
<feOffset dy="4"/>
<feGaussianBlur stdDeviation="2"/>
<feComposite in2="hardAlpha" operator="out"/>
<feColorMatrix type="matrix" values="0 0 0 0 0 0 0 0 0 0 0 0 0 0 0 0 0 0 0.25 0"/>
<feBlend mode="normal" in2="BackgroundImageFix" result="effect1_dropShadow_1278_2115"/>
<feBlend mode="normal" in="SourceGraphic" in2="effect1_dropShadow_1278_2115" result="shape"/>
</filter>
<filter id="filter12_d_1278_2115" x="50.2249" y="58.4688" width="130.737" height="97.7266" filterUnits="userSpaceOnUse" color-interpolation-filters="sRGB">
<feFlood flood-opacity="0" result="BackgroundImageFix"/>
<feColorMatrix in="SourceAlpha" type="matrix" values="0 0 0 0 0 0 0 0 0 0 0 0 0 0 0 0 0 0 127 0" result="hardAlpha"/>
<feOffset dy="4"/>
<feGaussianBlur stdDeviation="2"/>
<feComposite in2="hardAlpha" operator="out"/>
<feColorMatrix type="matrix" values="0 0 0 0 0 0 0 0 0 0 0 0 0 0 0 0 0 0 0.25 0"/>
<feBlend mode="normal" in2="BackgroundImageFix" result="effect1_dropShadow_1278_2115"/>
<feBlend mode="normal" in="SourceGraphic" in2="effect1_dropShadow_1278_2115" result="shape"/>
</filter>
</defs>
</svg>
