<svg width="16" height="16" viewBox="0 0 16 16" fill="none" xmlns="http://www.w3.org/2000/svg">
<path d="M9.10156 1.90039C9.29205 1.90039 9.44727 2.05466 9.44727 2.24512V7.28809H13.7549C13.9454 7.28809 14.0996 7.44236 14.0996 7.63281V8.49023C14.0994 8.68049 13.9452 8.83496 13.7549 8.83496H13.7324V12.7754C13.7324 12.9658 13.5782 13.1201 13.3877 13.1201H13.3652V13.7549C13.3652 13.9453 13.211 14.0996 13.0205 14.0996H12.1631C11.9727 14.0995 11.8184 13.9453 11.8184 13.7549V13.1201H9.08008V13.7549C9.08008 13.9453 8.92487 14.0996 8.73438 14.0996H2.24512C2.05463 14.0996 1.90039 13.9453 1.90039 13.7549V2.24512C1.90039 2.05466 2.05463 1.90039 2.24512 1.90039H9.10156ZM12.5078 13.4102H12.6758V13.1201H12.5078V13.4102ZM8.22266 13.4102H8.38965V13.1201H8.22266V13.4102ZM6.01855 13.4102H7.53223V13.1201H7.50977C7.31948 13.1199 7.16504 12.9657 7.16504 12.7754V8.83496H7.02051C6.83016 8.83496 6.67602 8.68049 6.67578 8.49023V7.63281C6.67578 7.44236 6.83002 7.28809 7.02051 7.28809H8.75684V2.58984H6.01855V13.4102ZM2.58984 13.4102H5.32812V11.5283H2.58984V13.4102ZM7.85547 12.4307H13.043V10.916H7.85547V12.4307ZM2.58984 10.8389H5.32812V2.58984H2.58984V10.8389ZM7.85547 10.2266H13.043V8.83496H7.85547V10.2266ZM7.36523 8.14453H13.4102V7.97754H7.36523V8.14453Z" fill="#1F2A37" stroke="#1F2A37" stroke-width="0.2"/>
<path d="M10.9167 9.125V9.81445H9.98218V9.125H10.9167Z" fill="#1F2A37" stroke="#1F2A37" stroke-width="0.2"/>
<path d="M10.9167 11.2065V11.896H9.98218V11.2065H10.9167Z" fill="#1F2A37" stroke="#1F2A37" stroke-width="0.2"/>
<path d="M6.99805 5.81885V6.99854H6.30859V5.81885H6.99805Z" fill="#1F2A37" stroke="#1F2A37" stroke-width="0.2"/>
<path d="M5.03882 5.81885V6.99854H4.34937V5.81885H5.03882Z" fill="#1F2A37" stroke="#1F2A37" stroke-width="0.2"/>
<path d="M4.42676 12.0637V12.7532H3.49219V12.0637H4.42676Z" fill="#1F2A37" stroke="#1F2A37" stroke-width="0.2"/>
</svg>
