<svg width="22" height="24" viewBox="0 0 22 24" fill="none" xmlns="http://www.w3.org/2000/svg">
<path d="M0.0958305 1.12939C0.0395254 1.33002 0 1.54527 0 1.79202V22.1065C0 22.3499 0.0380339 22.564 0.0932203 22.762L11.4206 11.9601L0.0958305 1.12939Z" fill="#48A0DC"/>
<path d="M2.61618 0.340315C2.08893 0.0166904 1.56913 -0.0643096 1.13025 0.0474404L12.505 10.9262L15.8415 7.74507L2.61618 0.340315Z" fill="#88C057"/>
<path d="M20.7173 10.4752L17.1869 8.49854L13.5714 11.9463L17.2547 15.4698L20.6901 13.5712C22.3654 12.61 21.7535 11.0613 20.7173 10.4752Z" fill="#FFCC66"/>
<path d="M12.4867 12.9795L1.09778 23.8387C1.54337 23.9644 2.0751 23.8897 2.61578 23.5579L15.8825 16.227L12.4867 12.9795Z" fill="#ED7161"/>
</svg>
