<svg width="16" height="16" viewBox="0 0 16 16" fill="none" xmlns="http://www.w3.org/2000/svg">
<path d="M7.55298 10.1699C7.84698 10.1036 8.15151 10.1028 8.44556 10.1689L8.44653 10.166L8.54321 10.1924L8.63989 10.2197L8.63892 10.2227C9.27975 10.4364 9.76277 10.9672 9.92114 11.624H9.92603L9.93774 11.6875L9.95532 11.7812L9.9563 11.7861L9.97388 11.8838H9.96997C10.0484 12.4022 9.97985 12.9311 9.77173 13.4121L9.77563 13.4141L9.73267 13.5039L9.70239 13.5684L9.6604 13.6553L9.61743 13.7451L9.60767 13.7402C9.45226 13.9567 9.16147 14.0395 8.91235 13.9209C8.66314 13.8023 8.54234 13.5239 8.61255 13.2666L8.60376 13.2627L8.64673 13.1719L8.6897 13.082L8.71899 13.0215C8.87102 12.7021 8.91721 12.3416 8.85181 11.9932L8.84009 11.9297L8.80981 11.8135C8.72111 11.5516 8.50955 11.3494 8.24341 11.2754C8.08429 11.2313 7.91612 11.2313 7.75708 11.2754C7.45251 11.3599 7.21896 11.6123 7.15942 11.9297L7.14771 11.9932L7.12817 12.124C7.1001 12.3869 7.13466 12.6529 7.22876 12.8994L7.28149 13.0215L7.30981 13.082L7.35278 13.1719L7.39575 13.2627L7.38696 13.2666C7.45722 13.5239 7.33641 13.8023 7.08716 13.9209C6.83786 14.0394 6.5461 13.9571 6.39087 13.7402L6.38208 13.7451L6.33911 13.6553L6.29712 13.5684L6.26685 13.5039L6.22388 13.4141L6.22681 13.4121C6.0188 12.9312 5.95209 12.402 6.03052 11.8838H6.02563L6.03931 11.8135L6.05591 11.7227L6.05981 11.7051L6.07446 11.624H6.07837C6.23669 10.9672 6.71975 10.4354 7.3606 10.2217V10.2197L7.4563 10.1924L7.55298 10.166V10.1699Z" fill="#1F2A37" stroke="#1F2A37" stroke-width="0.2"/>
<path d="M8.09961 1.90039V1.90625C8.48291 1.9319 8.8023 2.10074 9.0957 2.32617C9.38321 2.54706 9.69896 2.8634 10.0674 3.23438H10.0684L10.127 3.29395L10.1387 3.30566L10.21 3.37598H10.209L13.9365 7.12988L14.0078 7.20117L14 7.20801C14.1516 7.42745 14.1305 7.7303 13.9346 7.9248C13.7386 8.11944 13.4352 8.13867 13.2168 7.98535L13.2109 7.99219L13.1396 7.92188L13.0479 7.8291V9.72266H13.0459C13.0021 11.6864 11.6668 13.3856 9.77246 13.8789L9.77344 13.8818L9.67578 13.9043L9.57812 13.9277L9.57715 13.9238C8.53738 14.1544 7.46162 14.1545 6.42188 13.9238V13.9277L6.32422 13.9043L6.22656 13.8818V13.8789C4.33275 13.3853 2.99791 11.6861 2.9541 9.72266H2.95215V7.8291L2.86035 7.92188L2.79004 7.99219L2.78223 7.98535C2.56387 8.13816 2.26122 8.11924 2.06543 7.9248C1.86956 7.7303 1.84843 7.42745 2 7.20801L1.99219 7.20117L2.13379 7.05957L5.79004 3.37598L5.86133 3.30566L5.93164 3.23438C6.30028 2.86318 6.61669 2.54715 6.9043 2.32617C7.1977 2.10074 7.5171 1.93191 7.90039 1.90625V1.90039H8.09961ZM8 3.02344C7.9184 3.02344 7.80774 3.04867 7.58887 3.2168C7.35697 3.39497 7.07963 3.67225 6.6582 4.09668L4.0752 6.69824V9.62305L4.08789 9.90625C4.20768 11.3075 5.2078 12.4867 6.58203 12.8115C7.51438 13.0318 8.48558 13.0318 9.41797 12.8115C10.7922 12.4867 11.7923 11.3075 11.9121 9.90625L11.9248 9.62305V6.69824L9.3418 4.09668C8.9206 3.67246 8.64393 3.39498 8.41211 3.2168C8.19306 3.04849 8.08164 3.02344 8 3.02344Z" fill="#1F2A37" stroke="#1F2A37" stroke-width="0.2"/>
</svg>
