<svg width="24" height="24" viewBox="0 0 24 24" fill="none" xmlns="http://www.w3.org/2000/svg">
<path d="M21 10.8319V19.5C20.9998 19.7719 20.9262 20.0386 20.7868 20.272C20.6474 20.5054 20.4476 20.6968 20.2084 20.8259C19.9916 20.9432 19.7485 21.0031 19.5021 20.9999H14.9967C14.7978 20.9999 14.607 20.9209 14.4664 20.7803C14.3257 20.6396 14.2467 20.4488 14.2467 20.2499V15.7493C14.2467 15.5504 14.1677 15.3596 14.0271 15.2189C13.8864 15.0783 13.6956 14.9993 13.4967 14.9993H10.4967C10.2978 14.9993 10.107 15.0783 9.96639 15.2189C9.82574 15.3596 9.74672 15.5504 9.74672 15.7493V20.2499C9.74672 20.4488 9.6677 20.6396 9.52705 20.7803C9.3864 20.9209 9.19563 20.9999 8.99672 20.9999H4.50019C4.28754 21.0005 4.07723 20.9556 3.88335 20.8682C3.68947 20.7808 3.5165 20.653 3.37603 20.4934C3.12945 20.2082 2.99571 19.8427 3 19.4657V10.8318C3.00017 10.6228 3.04391 10.4162 3.12845 10.225C3.21299 10.0339 3.33646 9.86251 3.49097 9.7218L10.9903 2.90308C11.2658 2.65075 11.6258 2.51078 11.9994 2.51074C12.3729 2.51071 12.733 2.65062 13.0085 2.90289L20.5091 9.72189C20.6636 9.86263 20.787 10.034 20.8716 10.2252C20.9561 10.4163 20.9998 10.6229 21 10.8319Z" fill="#888B97"/>
</svg>
