<svg width="74" height="66" viewBox="0 0 74 66" fill="none" xmlns="http://www.w3.org/2000/svg">
<g filter="url(#filter0_d_3477_88)">
<path d="M39.4275 37.8572V20.7849H47.0745C48.6411 20.7849 49.9554 21.0128 51.0175 21.4685C52.0862 21.9242 52.8928 22.5633 53.4371 23.3858C53.988 24.2027 54.2635 25.1558 54.2635 26.245C54.2635 27.3398 53.9847 28.2902 53.4271 29.096C52.8762 29.8962 52.063 30.5159 50.9876 30.9549C49.9123 31.3884 48.5913 31.6051 47.0247 31.6051H41.5782V29.0376H46.5269C47.4429 29.0376 48.193 28.932 48.7772 28.7209C49.3613 28.5041 49.7928 28.1901 50.0716 27.7789C50.357 27.3621 50.4997 26.8508 50.4997 26.245C50.4997 25.6393 50.357 25.1225 50.0716 24.6945C49.7862 24.2611 49.3514 23.9332 48.7672 23.7109C48.1831 23.483 47.4297 23.3691 46.507 23.3691H43.1216V37.8572H39.4275ZM49.9621 30.1213L55.0103 37.8572H50.8881L45.9295 30.1213H49.9621Z" fill="#407BFF"/>
<path d="M21.5044 20.7681H26.0249L32.0788 33.1388H32.3178L38.3717 20.7681H42.8922V37.8404H39.3475V26.1115H39.1583L33.5226 37.7903H30.874L25.2383 26.0865H25.0491V37.8404H21.5044V20.7681Z" fill="black"/>
</g>
<g filter="url(#filter1_d_3477_88)">
<path d="M58.6707 24.2766L36.4372 7.03112L14.2036 24.2766V17.2496L36.4372 0L58.6707 17.2455V24.2766Z" fill="black"/>
</g>
<g filter="url(#filter2_d_3477_88)">
<path d="M34.3945 11.7778H36.3174V13.7007H34.3945V11.7778Z" fill="#407BFF"/>
<path d="M36.7976 11.7778H38.7205V13.7007H36.7976V11.7778Z" fill="#407BFF"/>
<path d="M34.3945 14.1816H36.3174V16.1045H34.3945V14.1816Z" fill="#407BFF"/>
<path d="M36.7976 14.1816H38.7205V16.1045H36.7976V14.1816Z" fill="#407BFF"/>
</g>
<g filter="url(#filter3_d_3477_88)">
<path d="M68.1936 54.6592V46.2666H69.3618V54.6592H68.1936Z" fill="black"/>
</g>
<g filter="url(#filter4_d_3477_88)">
<path d="M61.792 54.7725C61.2098 54.7725 60.6918 54.6402 60.2382 54.3755C59.7845 54.1033 59.4254 53.7328 59.1608 53.2641C58.9037 52.7953 58.7751 52.2622 58.7751 51.6649C58.7751 51.0676 58.9075 50.5384 59.1721 50.0771C59.4443 49.6084 59.8148 49.2417 60.2835 48.977C60.7523 48.7124 61.2854 48.5801 61.8827 48.5801C62.2456 48.5801 62.5783 48.6292 62.8807 48.7275C63.1907 48.8182 63.4591 48.9468 63.686 49.1131C63.9128 49.2795 64.0943 49.4647 64.2304 49.6688C64.3664 49.8654 64.4421 50.0734 64.4572 50.2926L64.1736 50.2473V48.7048H65.3418V54.6591H64.1736V53.1507L64.4232 53.1393C64.3929 53.3283 64.3022 53.5211 64.151 53.7177C64.0073 53.9067 63.8107 54.0806 63.5612 54.2394C63.3193 54.3982 63.0471 54.5267 62.7446 54.625C62.4422 54.7233 62.1246 54.7725 61.792 54.7725ZM62.0868 53.695C62.5027 53.695 62.8694 53.6081 63.1869 53.4342C63.5121 53.2603 63.7654 53.0221 63.9468 52.7197C64.1283 52.4097 64.219 52.0581 64.219 51.6649C64.219 51.2869 64.1283 50.9466 63.9468 50.6442C63.7654 50.3418 63.5121 50.1036 63.1869 49.9297C62.8694 49.7482 62.5027 49.6575 62.0868 49.6575C61.671 49.6575 61.3043 49.7482 60.9867 49.9297C60.6692 50.1036 60.4196 50.3418 60.2382 50.6442C60.0567 50.9466 59.966 51.2869 59.966 51.6649C59.966 52.0581 60.0567 52.4097 60.2382 52.7197C60.4196 53.0221 60.6692 53.2603 60.9867 53.4342C61.3043 53.6081 61.671 53.695 62.0868 53.695Z" fill="black"/>
</g>
<g filter="url(#filter5_d_3477_88)">
<path d="M54.2801 54.6591V47.0491H55.4483V54.6591H54.2801ZM52.7717 49.839V48.7049H57.1949V49.839H52.7717Z" fill="black"/>
</g>
<g filter="url(#filter6_d_3477_88)">
<path d="M44.8472 54.6591V48.7048H46.0153V50.1112L45.7205 50.2019C45.8339 49.9297 46.0115 49.6726 46.2535 49.4307C46.4954 49.1812 46.7828 48.977 47.1154 48.8182C47.4557 48.6595 47.8148 48.5801 48.1929 48.5801C48.7146 48.5801 49.1493 48.6822 49.4971 48.8863C49.8525 49.0829 50.1171 49.3664 50.291 49.7369C50.4649 50.1074 50.5519 50.5535 50.5519 51.0752V54.6591H49.3837V51.1999C49.3837 50.8597 49.3195 50.5762 49.1909 50.3493C49.0699 50.1149 48.8923 49.941 48.6579 49.8276C48.431 49.7067 48.1626 49.6499 47.8526 49.6575C47.588 49.6575 47.3423 49.7029 47.1154 49.7936C46.8962 49.8843 46.7034 50.0053 46.537 50.1565C46.3707 50.3077 46.2422 50.4779 46.1514 50.6669C46.0607 50.8484 46.0153 51.0374 46.0153 51.234V54.6591H45.4369C45.3008 54.6591 45.1836 54.6591 45.0853 54.6591C44.987 54.6591 44.9077 54.6591 44.8472 54.6591Z" fill="black"/>
</g>
<g filter="url(#filter7_d_3477_88)">
<path d="M39.4749 54.7726C38.7945 54.7726 38.1896 54.644 37.6603 54.387C37.1311 54.1223 36.7152 53.7632 36.4128 53.3095C36.1179 52.8559 35.9705 52.3342 35.9705 51.7444C35.9705 51.2605 36.0574 50.8258 36.2313 50.4402C36.4052 50.0546 36.6434 49.7219 36.9458 49.4421C37.2558 49.1624 37.6187 48.9469 38.0346 48.7957C38.4504 48.6445 38.8965 48.5688 39.3729 48.5688C39.8038 48.5688 40.2046 48.6407 40.5751 48.7843C40.9531 48.928 41.282 49.1284 41.5618 49.3854C41.8415 49.6425 42.057 49.9487 42.2082 50.3041C42.367 50.6519 42.4426 51.0375 42.435 51.4609L42.4237 52.0053H36.9231L36.6623 51.0753H41.4143L41.2442 51.2227V50.9505C41.214 50.701 41.1081 50.478 40.9266 50.2814C40.7452 50.0848 40.5184 49.9298 40.2462 49.8164C39.974 49.703 39.6829 49.6463 39.3729 49.6463C38.9192 49.6463 38.5223 49.7181 38.182 49.8618C37.8493 50.0054 37.5885 50.2285 37.3995 50.5309C37.218 50.8258 37.1273 51.2038 37.1273 51.665C37.1273 52.0809 37.2331 52.44 37.4448 52.7425C37.6565 53.0449 37.9514 53.2793 38.3295 53.4456C38.7075 53.612 39.1423 53.6952 39.6337 53.6952C40.0571 53.6952 40.4238 53.6347 40.7338 53.5137C41.0438 53.3927 41.3387 53.2264 41.6185 53.0147L42.1742 53.8653C41.9776 54.0316 41.7319 54.1866 41.437 54.3303C41.1421 54.4664 40.8246 54.576 40.4843 54.6592C40.1516 54.7348 39.8152 54.7726 39.4749 54.7726Z" fill="black"/>
</g>
<g filter="url(#filter8_d_3477_88)">
<path d="M27.5582 54.6592V46.7202H31.437C31.8982 46.7202 32.3216 46.8298 32.7072 47.0491C33.0928 47.2684 33.399 47.567 33.6259 47.9451C33.8527 48.3231 33.9661 48.7465 33.9661 49.2153C33.9661 49.6614 33.8451 50.0735 33.6032 50.4515C33.3688 50.8296 33.0512 51.132 32.6505 51.3588C32.2573 51.5857 31.8226 51.6991 31.3463 51.6991H28.7831V54.6592H27.5582ZM32.8433 54.6592L30.5524 51.0753L31.8339 50.7918L34.3517 54.6705L32.8433 54.6592ZM28.7831 50.5196H31.3689C31.6184 50.5196 31.8415 50.4629 32.0381 50.3495C32.2422 50.2285 32.401 50.0697 32.5144 49.8731C32.6354 49.669 32.6959 49.4459 32.6959 49.204C32.6959 48.9545 32.6278 48.7314 32.4917 48.5348C32.3632 48.3383 32.1817 48.1833 31.9473 48.0698C31.7205 47.9564 31.4634 47.8997 31.1761 47.8997H28.7831V50.5196Z" fill="black"/>
</g>
<g filter="url(#filter9_d_3477_88)">
<path d="M16.1839 57.2678L17.5449 54.4892L17.5562 55.4078L14.2559 48.7051H15.6168L17.4428 52.6292C17.5789 52.8863 17.6999 53.1396 17.8057 53.3891C17.9116 53.631 17.9872 53.8578 18.0325 54.0696L17.7944 54.1149C17.8775 53.9032 17.9721 53.6688 18.0779 53.4118C18.1838 53.1547 18.301 52.8787 18.4295 52.5838L20.0513 48.7051H21.4236L18.6109 54.682L17.4314 57.2678H16.1839Z" fill="black"/>
</g>
<g filter="url(#filter10_d_3477_88)">
<path d="M4 54.6592V46.7202H5.20219L8.37777 51.3362L7.85607 51.3248L11.0657 46.7202H12.2225V54.6592H10.9976V51.3588C10.9976 50.701 11.0128 50.0999 11.043 49.5556C11.0808 49.0036 11.1413 48.4517 11.2245 47.8997L11.3719 48.342L8.46851 52.3796H7.71997L4.87329 48.3647L4.99804 47.8997C5.08121 48.4365 5.13792 48.9771 5.16816 49.5215C5.20597 50.0584 5.22487 50.6708 5.22487 51.3588V54.6592H4Z" fill="black"/>
</g>
<g filter="url(#filter11_d_3477_88)">
<path fill-rule="evenodd" clip-rule="evenodd" d="M30.9958 18.6662C30.8559 18.6662 30.7267 18.7412 30.6573 18.8627L30.6573 18.8627L30.059 19.9098L30.3379 20.1423L30.338 20.1423C30.3447 20.1479 30.3531 20.151 30.3619 20.151H34.3363C34.3451 20.151 34.3535 20.1479 34.3602 20.1423L34.3603 20.1423L34.6393 19.9098L34.0409 18.8627L34.0409 18.8626C33.9715 18.7412 33.8423 18.6662 33.7024 18.6662H30.9958ZM35.4484 20.0557L35.723 19.8268C35.8567 19.7155 35.8748 19.5168 35.7634 19.3831C35.652 19.2495 35.4533 19.2314 35.3197 19.3428L35.1309 19.5001L34.588 18.5501C34.4064 18.2323 34.0684 18.0361 33.7024 18.0361H30.9958C30.6298 18.0361 30.2919 18.2323 30.1103 18.5501C30.1103 18.5501 30.1103 18.5501 30.1103 18.5501L29.5674 19.5001L29.3785 19.3428C29.2449 19.2314 29.0462 19.2495 28.9348 19.3831C28.8235 19.5168 28.8415 19.7155 28.9752 19.8268L29.2499 20.0557L29.0891 20.3371L29.3626 20.4934L29.0891 20.3371C28.9402 20.5977 28.8618 20.8927 28.8618 21.1929V23.2858C28.8618 23.6544 29.1607 23.9533 29.5293 23.9533H29.8818C30.2505 23.9533 30.5493 23.6544 30.5493 23.2858V23.2483H34.1489V23.2858C34.1489 23.6544 34.4478 23.9533 34.8164 23.9533H35.1689C35.5375 23.9533 35.8364 23.6544 35.8364 23.2858V21.1929C35.8364 20.8927 35.758 20.5977 35.6091 20.3371L35.6091 20.3371L35.4484 20.0557ZM34.9568 20.4654L34.7637 20.6263C34.7637 20.6263 34.7637 20.6263 34.7636 20.6263C34.6437 20.7263 34.4925 20.781 34.3363 20.781H30.3619C30.2058 20.781 30.0545 20.7263 29.9346 20.6263C29.9346 20.6263 29.9345 20.6263 29.9345 20.6263L29.7415 20.4654L29.6362 20.6497C29.5416 20.8151 29.4919 21.0023 29.4919 21.1929V23.2858C29.4919 23.3065 29.5087 23.3232 29.5293 23.3232H29.8818C29.9025 23.3232 29.9192 23.3065 29.9192 23.2858V22.9333C29.9192 22.7593 30.0603 22.6183 30.2343 22.6183H34.4639C34.6379 22.6183 34.779 22.7593 34.779 22.9333V23.2858C34.779 23.3065 34.7957 23.3232 34.8164 23.3232H35.1689C35.1896 23.3232 35.2063 23.3065 35.2063 23.2858V21.1929C35.2063 21.0024 35.1566 20.8151 35.0621 20.6497C35.0621 20.6497 35.0621 20.6497 35.0621 20.6497L34.9568 20.4654ZM30.3831 18.706L30.3838 18.7064L30.3831 18.706C30.1392 21.2084 29.9192 21.4284 29.9192 21.6997C30.9018 21.4284 30.6819 21.2084 30.4105 21.2084C30.6819 22.1909 30.9018 21.9709 30.9018 21.6997C29.9192 21.9709 30.1392 22.1909 30.4105 22.1909M33.7964 21.6997C33.7964 21.4283 34.0164 21.2084 34.2877 21.2084C34.559 21.2084 34.779 21.4283 34.779 21.6997C34.779 21.971 34.559 22.1909 34.2877 22.1909C34.0164 22.1909 33.7964 21.971 33.7964 21.6997Z" fill="black"/>
<path d="M33.2782 17.2227H35.534V19.4785H33.2782V17.2227Z" fill="white"/>
<path d="M33.9833 18.7732H36.2391V21.029H33.9833V18.7732Z" fill="white"/>
<path d="M33.9833 22.016C33.9833 21.4709 34.4251 21.0291 34.9702 21.0291C35.5153 21.0291 35.9571 21.4709 35.9571 22.016V23.1439C35.9571 23.6889 35.5153 24.1308 34.9702 24.1308C34.4251 24.1308 33.9833 23.6889 33.9833 23.1439V22.016Z" fill="white"/>
<path d="M35.6245 23.2846C35.6245 23.0026 35.6245 22.8616 35.6245 22.7206C35.6245 22.3175 35.6245 21.9254 35.6245 21.5904C35.6381 21.3294 35.514 21.1983 35.2523 21.1971L34.7059 21.1952C34.6107 21.1947 34.5192 21.2321 34.4512 21.2991C34.3833 21.3662 34.3443 21.4575 34.3428 21.5533L34.3243 23.2734C34.2403 23.271 34.1632 23.2215 34.0928 23.125C33.5717 22.405 33.3352 21.5441 33.3834 20.542C33.397 20.2662 33.4686 20.0608 33.5983 19.926C33.66 19.8617 33.6643 19.793 33.6112 19.72C33.5445 19.6285 33.5007 19.5283 33.4797 19.4194C33.4526 19.2858 33.3865 19.2629 33.2815 19.3508C33.2013 19.42 33.1111 19.4405 33.0111 19.412C32.8876 19.3774 32.8778 19.3211 32.9815 19.2432C33.1124 19.1454 33.2525 19.0786 33.4019 19.0428C33.7785 18.9537 33.7841 18.8454 33.4186 18.718L32.674 18.4564C32.6461 18.4468 32.6216 18.4291 32.6037 18.4056C32.5857 18.3821 32.5751 18.3538 32.5731 18.3243C32.5711 18.2948 32.5779 18.2653 32.5925 18.2397C32.6072 18.214 32.6291 18.1932 32.6555 18.1799L33.1019 17.9535C33.1447 17.9317 33.1942 17.9271 33.2403 17.9405C33.2864 17.954 33.3256 17.9845 33.3501 18.0259C33.4303 18.1607 33.4877 18.303 33.5223 18.4527C33.5649 18.6345 33.7575 18.6995 33.9242 18.6586C33.9405 18.6547 33.9556 18.6468 33.9682 18.6357C33.9808 18.6246 33.9905 18.6106 33.9966 18.5949C34.0026 18.5792 34.0047 18.5623 34.0027 18.5456C34.0008 18.5289 33.9948 18.5129 33.9854 18.4991L33.8316 18.2708C33.7724 18.1842 33.7853 18.1094 33.8705 18.0463C34.5818 17.5156 35.3177 17.5113 36.0783 18.0333C36.0993 18.048 36.1169 18.067 36.1299 18.089C36.143 18.1111 36.1512 18.1357 36.154 18.1611C36.1568 18.1866 36.1541 18.2124 36.1462 18.2367C36.1383 18.2611 36.1252 18.2835 36.108 18.3024L35.9894 18.4304C35.8894 18.5405 35.9116 18.6123 36.0561 18.6457C36.408 18.7292 36.4988 18.3209 36.5654 18.0723C36.5731 18.0429 36.5873 18.0155 36.607 17.9924C36.6267 17.9692 36.6513 17.9508 36.6791 17.9385C36.7069 17.9262 36.7371 17.9203 36.7674 17.9213C36.7978 17.9223 36.8275 17.9302 36.8544 17.9443L37.2841 18.1725C37.3105 18.1869 37.3323 18.2085 37.3468 18.2349C37.3613 18.2613 37.368 18.2912 37.366 18.3213C37.3641 18.3514 37.3536 18.3802 37.3358 18.4045C37.318 18.4288 37.2936 18.4474 37.2656 18.4582L36.471 18.757C36.2561 18.8374 36.2549 18.9209 36.4673 19.0075L36.9803 19.2172C37.0297 19.237 37.0464 19.2722 37.0303 19.3229L37.01 19.3842C37.0062 19.3957 37.0001 19.4063 36.9923 19.4154C36.9844 19.4245 36.9748 19.432 36.9641 19.4374C36.9534 19.4427 36.9418 19.4459 36.93 19.4466C36.9181 19.4474 36.9063 19.4457 36.8951 19.4417L36.5766 19.3285C36.5086 19.305 36.4642 19.3267 36.4432 19.3935L36.321 19.7776C36.2975 19.8493 36.3136 19.9118 36.3691 19.965L36.4302 20.0243C36.4747 20.0664 36.5025 20.1184 36.5136 20.1802C36.6889 21.2503 36.4747 22.2281 35.8709 23.1139C35.7943 23.2277 35.7344 23.2846 35.6245 23.2846ZM34.8892 19.6273L34.1632 19.0242C34.1347 19.0006 34.0984 18.9887 34.0615 18.9912C34.0246 18.9936 33.9901 19.01 33.965 19.0372L33.8946 19.1114C33.86 19.1498 33.8514 19.1937 33.8687 19.2432C34.0169 19.6532 34.6725 20.889 35.2671 20.4177C35.5708 20.1765 36.0894 19.5753 36.0487 19.1485C36.0461 19.1205 36.036 19.0937 36.0195 19.071C36.003 19.0483 35.9806 19.0304 35.9548 19.0194C35.929 19.0084 35.9007 19.0046 35.8728 19.0083C35.845 19.0121 35.8187 19.0234 35.7968 19.0409L35.0522 19.6291C34.9967 19.6724 34.9423 19.6718 34.8892 19.6273Z" fill="#00B0DC"/>
<path fill-rule="evenodd" clip-rule="evenodd" d="M35.416 23.4949V21.5853L35.4163 21.5798C35.4215 21.4808 35.3983 21.4491 35.3906 21.441C35.3829 21.4328 35.3524 21.4079 35.253 21.4074C35.2529 21.4074 35.253 21.4074 35.253 21.4074L34.7063 21.4055C34.6669 21.4053 34.6288 21.4208 34.6003 21.4489C34.5717 21.4771 34.5551 21.5157 34.5544 21.5565C34.5544 21.5566 34.5544 21.5567 34.5544 21.5569L34.5336 23.49L34.3197 23.4837C34.1466 23.4786 34.0163 23.3747 33.9246 23.2491L33.9242 23.2484C33.3716 22.4849 33.125 21.5754 33.1752 20.5323L33.1752 20.532C33.1893 20.2454 33.2617 19.9947 33.4203 19.8115C33.3727 19.7405 33.3352 19.6649 33.3082 19.5851C33.2004 19.6386 33.0798 19.6497 32.9555 19.6144C32.9141 19.6028 32.8661 19.5852 32.823 19.5558C32.7791 19.5259 32.7215 19.47 32.7058 19.3804C32.6902 19.2917 32.7247 19.22 32.7544 19.1775C32.784 19.1351 32.8223 19.1015 32.8568 19.0756L32.8574 19.0752C32.9742 18.9879 33.0991 18.9207 33.2317 18.8747L32.6064 18.655C32.5396 18.6319 32.4812 18.5896 32.4383 18.5334C32.3953 18.4771 32.3698 18.4094 32.3651 18.3387C32.3603 18.268 32.3765 18.1974 32.4117 18.1359C32.4467 18.0744 32.4991 18.0246 32.5623 17.9928L33.0081 17.7667C33.0081 17.7667 33.0082 17.7666 33.0081 17.7667C33.0985 17.7207 33.2032 17.7108 33.3006 17.7392C33.3979 17.7676 33.4807 17.8319 33.5322 17.9191C33.5592 17.9644 33.584 18.0106 33.6065 18.0576C33.6352 17.9784 33.6908 17.9196 33.7467 17.8781C34.1306 17.5917 34.5349 17.4378 34.9562 17.4353C35.3768 17.4329 35.7921 17.5814 36.1987 17.8605L36.2003 17.8616C36.2458 17.8934 36.2839 17.9346 36.3122 17.9823C36.3285 18.0098 36.3413 18.0392 36.3504 18.0697C36.3524 18.0621 36.3544 18.0546 36.3564 18.047C36.3589 18.0376 36.3614 18.0282 36.364 18.0187C36.3797 17.9591 36.4085 17.9037 36.4485 17.8567C36.4886 17.8095 36.5389 17.7719 36.5955 17.7468C36.6522 17.7217 36.7139 17.7097 36.7758 17.7117C36.8378 17.7137 36.8985 17.7298 36.9534 17.7586L36.9544 17.7591L37.386 17.9883C37.4477 18.0219 37.4984 18.0724 37.5323 18.1339C37.5661 18.1954 37.5817 18.2652 37.5772 18.3352C37.5726 18.4052 37.5482 18.4725 37.5067 18.529C37.4651 18.5856 37.4083 18.6292 37.3428 18.6545L37.341 18.6552L36.7264 18.8862L37.06 19.0225C37.0603 19.0226 37.0605 19.0227 37.0608 19.0229C37.1164 19.0453 37.1833 19.0887 37.2213 19.169C37.2594 19.2497 37.2502 19.3294 37.2321 19.3866L37.2316 19.3881L37.2108 19.4508C37.2108 19.4508 37.2108 19.4508 37.2108 19.4508C37.1984 19.4882 37.1787 19.5229 37.1529 19.5528C37.127 19.5828 37.0954 19.6076 37.0597 19.6255C37.024 19.6434 36.9849 19.654 36.9447 19.6565C36.9045 19.6591 36.8642 19.6534 36.8262 19.6399C36.8261 19.6398 36.826 19.6398 36.8259 19.6398L36.6111 19.5634L36.5278 19.8252L36.5773 19.8732C36.6546 19.9468 36.7031 20.0392 36.7218 20.1434L36.7221 20.145L36.7224 20.1466C36.9063 21.2689 36.6806 22.3012 36.0463 23.2319C36.0057 23.2923 35.9553 23.36 35.887 23.4108C35.8101 23.4679 35.723 23.4949 35.6261 23.4949H35.416ZM36.5094 19.5273L36.5781 19.3288L36.5094 19.5273ZM36.8967 19.442C36.9078 19.446 36.9197 19.4477 36.9315 19.4469C36.9433 19.4462 36.955 19.443 36.9657 19.4377C36.9763 19.4323 36.9859 19.4249 36.9938 19.4157C37.0017 19.4066 37.0077 19.396 37.0115 19.3845L37.0319 19.3233C37.0479 19.2725 37.0313 19.2373 36.9819 19.2175L36.4688 19.0078C36.3191 18.9468 36.2756 18.8873 36.3381 18.8293C36.3601 18.8089 36.3952 18.7888 36.4434 18.7687C36.4526 18.7649 36.4623 18.7611 36.4725 18.7573L37.2671 18.4586C37.2951 18.4477 37.3195 18.4291 37.3373 18.4048C37.3551 18.3805 37.3656 18.3517 37.3676 18.3216C37.3695 18.2916 37.3628 18.2616 37.3483 18.2352C37.3338 18.2088 37.312 18.1872 37.2856 18.1728L36.8559 17.9446C36.829 17.9305 36.7993 17.9226 36.7689 17.9216C36.7386 17.9206 36.7084 17.9265 36.6806 17.9388C36.6529 17.9511 36.6282 17.9695 36.6085 17.9927C36.5889 18.0159 36.5747 18.0432 36.567 18.0726C36.564 18.0836 36.561 18.095 36.5579 18.1066C36.5151 18.2682 36.4591 18.4795 36.3341 18.5873C36.3047 18.6126 36.2714 18.6323 36.2336 18.6441C36.1835 18.6599 36.1254 18.6621 36.0576 18.646C35.9132 18.6126 35.8909 18.5408 35.9909 18.4307L36.1095 18.3027C36.1268 18.2838 36.1398 18.2614 36.1477 18.237C36.1557 18.2127 36.1583 18.1869 36.1555 18.1614C36.1527 18.136 36.1445 18.1114 36.1315 18.0893C36.1184 18.0673 36.1008 18.0483 36.0799 18.0336C35.3192 17.5116 34.5833 17.5159 33.8721 18.0466C33.7869 18.1097 33.7739 18.1846 33.8332 18.2711L33.9869 18.4994C33.9964 18.5133 34.0023 18.5292 34.0043 18.5459C34.0062 18.5626 34.0041 18.5795 33.9981 18.5952C33.9921 18.6109 33.9824 18.6249 33.9698 18.636C33.9572 18.6471 33.9421 18.655 33.9258 18.659C33.8798 18.6702 33.8319 18.6734 33.7856 18.6684C33.6979 18.6588 33.6164 18.6194 33.5663 18.5485C33.547 18.5214 33.5324 18.4895 33.5238 18.453C33.4893 18.3033 33.4319 18.161 33.3516 18.0262C33.3271 17.9848 33.2879 17.9543 33.2418 17.9408C33.1957 17.9274 33.1462 17.9321 33.1034 17.9538L32.657 18.1802C32.6306 18.1935 32.6087 18.2143 32.5941 18.24C32.5794 18.2656 32.5726 18.2951 32.5746 18.3246C32.5766 18.3541 32.5872 18.3824 32.6052 18.4059C32.6231 18.4294 32.6476 18.4471 32.6755 18.4567L33.4201 18.7183C33.426 18.7204 33.4318 18.7224 33.4374 18.7245C33.5719 18.7727 33.6528 18.8182 33.6799 18.8608C33.7229 18.9286 33.6308 18.9893 33.4035 19.0431C33.254 19.0789 33.1139 19.1457 32.983 19.2435C32.8793 19.3214 32.8892 19.3777 33.0126 19.4123C33.1127 19.4408 33.2028 19.4204 33.2831 19.3511C33.388 19.2633 33.4541 19.2861 33.4812 19.4197C33.5022 19.5286 33.5461 19.6288 33.6128 19.7203C33.6658 19.7933 33.6615 19.862 33.5998 19.9263C33.4701 20.0611 33.3985 20.2665 33.3849 20.5424C33.3368 21.5444 33.5732 22.4053 34.0943 23.1253C34.1018 23.1356 34.1094 23.1454 34.1171 23.1546C34.1813 23.2318 34.2508 23.2715 34.3258 23.2737L34.3444 21.5536C34.3458 21.4578 34.3848 21.3665 34.4528 21.2994C34.5207 21.2324 34.6122 21.195 34.7074 21.1955L35.2538 21.1974C35.5156 21.1986 35.6397 21.3297 35.6261 21.5908V23.2849C35.7181 23.2849 35.7751 23.245 35.8361 23.1652C35.848 23.1497 35.86 23.1327 35.8724 23.1142C36.4762 22.2284 36.6905 21.2506 36.5151 20.1805C36.504 20.1187 36.4762 20.0667 36.4318 20.0247L36.3706 19.9653C36.3151 19.9121 36.299 19.8496 36.3225 19.7779L36.4447 19.3938C36.4657 19.327 36.5102 19.3053 36.5781 19.3288L36.8967 19.442ZM33.9665 19.0375L33.8961 19.1117C33.8616 19.1501 33.8529 19.194 33.8702 19.2435C34.0184 19.6535 34.674 20.8893 35.2686 20.418C35.5724 20.1768 36.091 19.5756 36.0502 19.1488C36.0476 19.1208 36.0376 19.094 36.021 19.0713C36.0045 19.0486 35.9821 19.0308 35.9563 19.0197C35.9305 19.0087 35.9022 19.0049 35.8744 19.0086C35.8466 19.0124 35.8203 19.0237 35.7983 19.0412L35.0537 19.6294C34.9982 19.6727 34.9439 19.6721 34.8908 19.6276L34.1647 19.0245C34.1363 19.0009 34.0999 18.9891 34.063 18.9915C34.0262 18.9939 33.9916 19.0104 33.9665 19.0375ZM34.0778 19.2254L34.0851 19.2177C34.0828 19.212 34.0806 19.2064 34.0785 19.2009C34.0779 19.201 34.0773 19.201 34.0768 19.201C34.075 19.2012 34.0732 19.2012 34.0714 19.2012C34.0712 19.2051 34.0707 19.2094 34.0698 19.214C34.0695 19.2153 34.0692 19.2167 34.0689 19.218L34.0778 19.2254ZM34.0317 19.187C34.0313 19.1867 34.0309 19.1864 34.0305 19.1861L34.0317 19.187ZM33.9942 19.2001L33.9907 19.2014L33.9896 19.2003L33.993 19.1991L33.9942 19.2001Z" fill="white"/>
<path d="M34.549 21.8746C34.549 21.641 34.7383 21.4517 34.9719 21.4517C35.2055 21.4517 35.3949 21.641 35.3949 21.8746V24.1304C35.3949 24.364 35.2055 24.5534 34.9719 24.5534C34.7383 24.5534 34.549 24.364 34.549 24.1304V21.8746Z" fill="black"/>
</g>
<g filter="url(#filter12_d_3477_88)">
<mask id="mask0_3477_88" style="mask-type:alpha" maskUnits="userSpaceOnUse" x="18" y="16" width="38" height="30">
<path d="M18.9195 35.7016C17.0214 28.373 23.5235 20.3495 33.4423 17.7805C43.3611 15.2115 52.9406 19.0699 54.8387 26.3985C56.7368 33.727 50.2347 41.7505 40.3159 44.3195C30.3971 46.8885 20.8176 43.0301 18.9195 35.7016Z" fill="#D9D9D9"/>
</mask>
<g mask="url(#mask0_3477_88)">
<path fill-rule="evenodd" clip-rule="evenodd" d="M21.5517 23.6328C19.1443 26.6036 18.2356 29.9244 19.02 32.9532C19.8045 35.982 22.211 38.4441 25.7579 39.8727C29.3042 41.3011 33.8702 41.6289 38.5886 40.4069C43.307 39.1848 47.1397 36.6816 49.5468 33.7113C51.9543 30.7405 52.863 27.4198 52.0785 24.391C51.294 21.3622 48.8876 18.9 45.3406 17.4714C41.7943 16.0431 37.2284 15.7152 32.5099 16.9372C27.7915 18.1593 23.9588 20.6625 21.5517 23.6328ZM32.036 15.1074C21.8966 17.7335 15.2499 25.9355 17.1902 33.4271C19.1305 40.9186 28.9231 44.8629 39.0625 42.2367C49.202 39.6106 55.8487 31.4086 53.9084 23.917C51.968 16.4255 42.1755 12.4813 32.036 15.1074Z" fill="black"/>
</g>
</g>
<defs>
<filter id="filter0_d_3477_88" x="17.5044" y="20.7681" width="41.5059" height="25.0891" filterUnits="userSpaceOnUse" color-interpolation-filters="sRGB">
<feFlood flood-opacity="0" result="BackgroundImageFix"/>
<feColorMatrix in="SourceAlpha" type="matrix" values="0 0 0 0 0 0 0 0 0 0 0 0 0 0 0 0 0 0 127 0" result="hardAlpha"/>
<feOffset dy="4"/>
<feGaussianBlur stdDeviation="2"/>
<feComposite in2="hardAlpha" operator="out"/>
<feColorMatrix type="matrix" values="0 0 0 0 0 0 0 0 0 0 0 0 0 0 0 0 0 0 0.25 0"/>
<feBlend mode="normal" in2="BackgroundImageFix" result="effect1_dropShadow_3477_88"/>
<feBlend mode="normal" in="SourceGraphic" in2="effect1_dropShadow_3477_88" result="shape"/>
</filter>
<filter id="filter1_d_3477_88" x="10.2036" y="0" width="52.4672" height="32.2766" filterUnits="userSpaceOnUse" color-interpolation-filters="sRGB">
<feFlood flood-opacity="0" result="BackgroundImageFix"/>
<feColorMatrix in="SourceAlpha" type="matrix" values="0 0 0 0 0 0 0 0 0 0 0 0 0 0 0 0 0 0 127 0" result="hardAlpha"/>
<feOffset dy="4"/>
<feGaussianBlur stdDeviation="2"/>
<feComposite in2="hardAlpha" operator="out"/>
<feColorMatrix type="matrix" values="0 0 0 0 0 0 0 0 0 0 0 0 0 0 0 0 0 0 0.25 0"/>
<feBlend mode="normal" in2="BackgroundImageFix" result="effect1_dropShadow_3477_88"/>
<feBlend mode="normal" in="SourceGraphic" in2="effect1_dropShadow_3477_88" result="shape"/>
</filter>
<filter id="filter2_d_3477_88" x="30.3945" y="11.7778" width="12.3259" height="12.3267" filterUnits="userSpaceOnUse" color-interpolation-filters="sRGB">
<feFlood flood-opacity="0" result="BackgroundImageFix"/>
<feColorMatrix in="SourceAlpha" type="matrix" values="0 0 0 0 0 0 0 0 0 0 0 0 0 0 0 0 0 0 127 0" result="hardAlpha"/>
<feOffset dy="4"/>
<feGaussianBlur stdDeviation="2"/>
<feComposite in2="hardAlpha" operator="out"/>
<feColorMatrix type="matrix" values="0 0 0 0 0 0 0 0 0 0 0 0 0 0 0 0 0 0 0.25 0"/>
<feBlend mode="normal" in2="BackgroundImageFix" result="effect1_dropShadow_3477_88"/>
<feBlend mode="normal" in="SourceGraphic" in2="effect1_dropShadow_3477_88" result="shape"/>
</filter>
<filter id="filter3_d_3477_88" x="64.1936" y="46.2666" width="9.16821" height="16.3926" filterUnits="userSpaceOnUse" color-interpolation-filters="sRGB">
<feFlood flood-opacity="0" result="BackgroundImageFix"/>
<feColorMatrix in="SourceAlpha" type="matrix" values="0 0 0 0 0 0 0 0 0 0 0 0 0 0 0 0 0 0 127 0" result="hardAlpha"/>
<feOffset dy="4"/>
<feGaussianBlur stdDeviation="2"/>
<feComposite in2="hardAlpha" operator="out"/>
<feColorMatrix type="matrix" values="0 0 0 0 0 0 0 0 0 0 0 0 0 0 0 0 0 0 0.25 0"/>
<feBlend mode="normal" in2="BackgroundImageFix" result="effect1_dropShadow_3477_88"/>
<feBlend mode="normal" in="SourceGraphic" in2="effect1_dropShadow_3477_88" result="shape"/>
</filter>
<filter id="filter4_d_3477_88" x="54.7751" y="48.5801" width="14.5667" height="14.1924" filterUnits="userSpaceOnUse" color-interpolation-filters="sRGB">
<feFlood flood-opacity="0" result="BackgroundImageFix"/>
<feColorMatrix in="SourceAlpha" type="matrix" values="0 0 0 0 0 0 0 0 0 0 0 0 0 0 0 0 0 0 127 0" result="hardAlpha"/>
<feOffset dy="4"/>
<feGaussianBlur stdDeviation="2"/>
<feComposite in2="hardAlpha" operator="out"/>
<feColorMatrix type="matrix" values="0 0 0 0 0 0 0 0 0 0 0 0 0 0 0 0 0 0 0.25 0"/>
<feBlend mode="normal" in2="BackgroundImageFix" result="effect1_dropShadow_3477_88"/>
<feBlend mode="normal" in="SourceGraphic" in2="effect1_dropShadow_3477_88" result="shape"/>
</filter>
<filter id="filter5_d_3477_88" x="48.7717" y="47.0491" width="12.4231" height="15.6101" filterUnits="userSpaceOnUse" color-interpolation-filters="sRGB">
<feFlood flood-opacity="0" result="BackgroundImageFix"/>
<feColorMatrix in="SourceAlpha" type="matrix" values="0 0 0 0 0 0 0 0 0 0 0 0 0 0 0 0 0 0 127 0" result="hardAlpha"/>
<feOffset dy="4"/>
<feGaussianBlur stdDeviation="2"/>
<feComposite in2="hardAlpha" operator="out"/>
<feColorMatrix type="matrix" values="0 0 0 0 0 0 0 0 0 0 0 0 0 0 0 0 0 0 0.25 0"/>
<feBlend mode="normal" in2="BackgroundImageFix" result="effect1_dropShadow_3477_88"/>
<feBlend mode="normal" in="SourceGraphic" in2="effect1_dropShadow_3477_88" result="shape"/>
</filter>
<filter id="filter6_d_3477_88" x="40.8472" y="48.5801" width="13.7047" height="14.0789" filterUnits="userSpaceOnUse" color-interpolation-filters="sRGB">
<feFlood flood-opacity="0" result="BackgroundImageFix"/>
<feColorMatrix in="SourceAlpha" type="matrix" values="0 0 0 0 0 0 0 0 0 0 0 0 0 0 0 0 0 0 127 0" result="hardAlpha"/>
<feOffset dy="4"/>
<feGaussianBlur stdDeviation="2"/>
<feComposite in2="hardAlpha" operator="out"/>
<feColorMatrix type="matrix" values="0 0 0 0 0 0 0 0 0 0 0 0 0 0 0 0 0 0 0.25 0"/>
<feBlend mode="normal" in2="BackgroundImageFix" result="effect1_dropShadow_3477_88"/>
<feBlend mode="normal" in="SourceGraphic" in2="effect1_dropShadow_3477_88" result="shape"/>
</filter>
<filter id="filter7_d_3477_88" x="31.9705" y="48.5688" width="14.4651" height="14.2036" filterUnits="userSpaceOnUse" color-interpolation-filters="sRGB">
<feFlood flood-opacity="0" result="BackgroundImageFix"/>
<feColorMatrix in="SourceAlpha" type="matrix" values="0 0 0 0 0 0 0 0 0 0 0 0 0 0 0 0 0 0 127 0" result="hardAlpha"/>
<feOffset dy="4"/>
<feGaussianBlur stdDeviation="2"/>
<feComposite in2="hardAlpha" operator="out"/>
<feColorMatrix type="matrix" values="0 0 0 0 0 0 0 0 0 0 0 0 0 0 0 0 0 0 0.25 0"/>
<feBlend mode="normal" in2="BackgroundImageFix" result="effect1_dropShadow_3477_88"/>
<feBlend mode="normal" in="SourceGraphic" in2="effect1_dropShadow_3477_88" result="shape"/>
</filter>
<filter id="filter8_d_3477_88" x="23.5582" y="46.7202" width="14.7935" height="15.9502" filterUnits="userSpaceOnUse" color-interpolation-filters="sRGB">
<feFlood flood-opacity="0" result="BackgroundImageFix"/>
<feColorMatrix in="SourceAlpha" type="matrix" values="0 0 0 0 0 0 0 0 0 0 0 0 0 0 0 0 0 0 127 0" result="hardAlpha"/>
<feOffset dy="4"/>
<feGaussianBlur stdDeviation="2"/>
<feComposite in2="hardAlpha" operator="out"/>
<feColorMatrix type="matrix" values="0 0 0 0 0 0 0 0 0 0 0 0 0 0 0 0 0 0 0.25 0"/>
<feBlend mode="normal" in2="BackgroundImageFix" result="effect1_dropShadow_3477_88"/>
<feBlend mode="normal" in="SourceGraphic" in2="effect1_dropShadow_3477_88" result="shape"/>
</filter>
<filter id="filter9_d_3477_88" x="10.2559" y="48.7051" width="15.1677" height="16.5627" filterUnits="userSpaceOnUse" color-interpolation-filters="sRGB">
<feFlood flood-opacity="0" result="BackgroundImageFix"/>
<feColorMatrix in="SourceAlpha" type="matrix" values="0 0 0 0 0 0 0 0 0 0 0 0 0 0 0 0 0 0 127 0" result="hardAlpha"/>
<feOffset dy="4"/>
<feGaussianBlur stdDeviation="2"/>
<feComposite in2="hardAlpha" operator="out"/>
<feColorMatrix type="matrix" values="0 0 0 0 0 0 0 0 0 0 0 0 0 0 0 0 0 0 0.25 0"/>
<feBlend mode="normal" in2="BackgroundImageFix" result="effect1_dropShadow_3477_88"/>
<feBlend mode="normal" in="SourceGraphic" in2="effect1_dropShadow_3477_88" result="shape"/>
</filter>
<filter id="filter10_d_3477_88" x="0" y="46.7202" width="16.2224" height="15.939" filterUnits="userSpaceOnUse" color-interpolation-filters="sRGB">
<feFlood flood-opacity="0" result="BackgroundImageFix"/>
<feColorMatrix in="SourceAlpha" type="matrix" values="0 0 0 0 0 0 0 0 0 0 0 0 0 0 0 0 0 0 127 0" result="hardAlpha"/>
<feOffset dy="4"/>
<feGaussianBlur stdDeviation="2"/>
<feComposite in2="hardAlpha" operator="out"/>
<feColorMatrix type="matrix" values="0 0 0 0 0 0 0 0 0 0 0 0 0 0 0 0 0 0 0.25 0"/>
<feBlend mode="normal" in2="BackgroundImageFix" result="effect1_dropShadow_3477_88"/>
<feBlend mode="normal" in="SourceGraphic" in2="effect1_dropShadow_3477_88" result="shape"/>
</filter>
<filter id="filter11_d_3477_88" x="24.8618" y="17.2227" width="16.7161" height="15.3308" filterUnits="userSpaceOnUse" color-interpolation-filters="sRGB">
<feFlood flood-opacity="0" result="BackgroundImageFix"/>
<feColorMatrix in="SourceAlpha" type="matrix" values="0 0 0 0 0 0 0 0 0 0 0 0 0 0 0 0 0 0 127 0" result="hardAlpha"/>
<feOffset dy="4"/>
<feGaussianBlur stdDeviation="2"/>
<feComposite in2="hardAlpha" operator="out"/>
<feColorMatrix type="matrix" values="0 0 0 0 0 0 0 0 0 0 0 0 0 0 0 0 0 0 0.25 0"/>
<feBlend mode="normal" in2="BackgroundImageFix" result="effect1_dropShadow_3477_88"/>
<feBlend mode="normal" in="SourceGraphic" in2="effect1_dropShadow_3477_88" result="shape"/>
</filter>
<filter id="filter12_d_3477_88" x="14.5903" y="16.9851" width="43.6545" height="34.0647" filterUnits="userSpaceOnUse" color-interpolation-filters="sRGB">
<feFlood flood-opacity="0" result="BackgroundImageFix"/>
<feColorMatrix in="SourceAlpha" type="matrix" values="0 0 0 0 0 0 0 0 0 0 0 0 0 0 0 0 0 0 127 0" result="hardAlpha"/>
<feOffset dy="4"/>
<feGaussianBlur stdDeviation="2"/>
<feComposite in2="hardAlpha" operator="out"/>
<feColorMatrix type="matrix" values="0 0 0 0 0 0 0 0 0 0 0 0 0 0 0 0 0 0 0.25 0"/>
<feBlend mode="normal" in2="BackgroundImageFix" result="effect1_dropShadow_3477_88"/>
<feBlend mode="normal" in="SourceGraphic" in2="effect1_dropShadow_3477_88" result="shape"/>
</filter>
</defs>
</svg>
