<svg width="18" height="18" viewBox="0 0 18 18" fill="none" xmlns="http://www.w3.org/2000/svg">
<path d="M15.4017 6.75C15.6501 6.75021 15.851 6.95181 15.851 7.2002C15.8509 7.5507 15.59 7.79089 15.2299 7.93848C14.8673 8.08699 14.3747 8.15625 13.8392 8.15625C13.3038 8.15624 12.8111 8.08705 12.4486 7.93848C12.0886 7.79088 11.8276 7.55064 11.8275 7.2002C11.8275 6.95168 12.0292 6.75 12.2777 6.75C12.4755 6.75003 12.6412 6.87838 12.7015 7.05566C12.7377 7.07678 12.7952 7.10418 12.8744 7.12988C13.115 7.20788 13.4612 7.25682 13.8392 7.25684C14.2176 7.25684 14.5643 7.20796 14.8051 7.12988C14.8834 7.10447 14.9397 7.07665 14.976 7.05566C15.0362 6.87812 15.2037 6.75 15.4017 6.75ZM13.847 1.90039C14.5208 1.90039 15.138 1.98783 15.5902 2.16504C16.0367 2.3401 16.3595 2.6195 16.3597 3.01855C16.3597 3.41783 16.0368 3.69695 15.5902 3.87207C15.1379 4.04935 14.5209 4.1377 13.847 4.1377C13.1732 4.13766 12.5561 4.04938 12.1039 3.87207C11.6575 3.69694 11.3353 3.41767 11.3353 3.01855C11.3355 2.61958 11.6575 2.3401 12.1039 2.16504C12.5561 1.98773 13.1732 1.90043 13.847 1.90039ZM13.847 2.7998C13.3344 2.79984 12.8617 2.86531 12.5277 2.97363C12.4839 2.98784 12.4446 3.00405 12.4086 3.01855C12.4446 3.03307 12.4839 3.04926 12.5277 3.06348C12.8617 3.1718 13.3344 3.23824 13.847 3.23828C14.3599 3.23828 14.8333 3.17184 15.1674 3.06348C15.2108 3.04937 15.2497 3.03296 15.2855 3.01855C15.2497 3.00416 15.2108 2.98773 15.1674 2.97363C14.8333 2.86527 14.3599 2.7998 13.847 2.7998Z" fill="#6941C6" stroke="#6941C6" stroke-width="0.2"/>
<path d="M8.32544 7.61108C10.2806 7.61113 12.0664 8.12331 13.3665 8.96948C14.6658 9.81529 15.4903 11.0026 15.4905 12.3484C15.4905 13.6944 14.666 14.8824 13.3665 15.7283C12.0664 16.5744 10.2806 17.0866 8.32544 17.0867C6.37009 17.0867 4.58357 16.5746 3.28345 15.7283C1.98395 14.8824 1.1604 13.6944 1.1604 12.3484C1.16058 11.0026 1.98412 9.81529 3.28345 8.96948C4.58357 8.12319 6.37009 7.61108 8.32544 7.61108ZM8.32544 8.5105C6.57167 8.5105 4.99916 8.95827 3.86841 9.66479C2.73604 10.3724 2.06001 11.3291 2.05981 12.3484C2.05981 13.3678 2.73584 14.3253 3.86841 15.033C4.99916 15.7395 6.57167 16.1873 8.32544 16.1873C10.0791 16.1872 11.6518 15.7394 12.7825 15.033C13.9148 14.3253 14.5901 13.3677 14.5901 12.3484C14.5899 11.3293 13.9146 10.3723 12.7825 9.66479C11.6518 8.95831 10.0791 8.51055 8.32544 8.5105ZM11.7375 2.66772C11.984 2.63823 12.2077 2.81388 12.2375 3.0603L12.7239 7.11011C12.7535 7.35675 12.5779 7.58038 12.3313 7.61011C12.0846 7.63974 11.86 7.4642 11.8303 7.21753L11.344 3.16772C11.3146 2.92115 11.4909 2.69735 11.7375 2.66772ZM15.9534 2.66772C16.1999 2.69747 16.3754 2.9212 16.3459 3.16772L15.8586 7.21753C15.8289 7.46421 15.6044 7.63981 15.3577 7.61011C15.1113 7.58016 14.9356 7.35657 14.9651 7.11011L15.4524 3.0603C15.4822 2.81371 15.7067 2.63803 15.9534 2.66772Z" fill="#6941C6" stroke="#6941C6" stroke-width="0.2"/>
<path d="M8.3252 9.07129C9.74815 9.0713 11.0531 9.40985 12.0059 9.97754C12.9572 10.5444 13.5713 11.3503 13.5713 12.2842C13.5711 13.2179 12.9571 14.023 12.0059 14.5898C11.0531 15.1575 9.74815 15.4971 8.3252 15.4971C6.90228 15.4971 5.59724 15.1575 4.64453 14.5898C3.69335 14.023 3.07929 13.2179 3.0791 12.2842C3.0791 11.3503 3.69317 10.5444 4.64453 9.97754C5.59724 9.40984 6.90228 9.07129 8.3252 9.07129ZM8.3252 9.9707C7.0986 9.9707 6.00403 10.2509 5.21973 10.6846C4.43085 11.1208 3.97852 11.6979 3.97852 12.2842C3.97873 12.8703 4.43107 13.4467 5.21973 13.8828C6.00403 14.3164 7.09861 14.5967 8.3252 14.5967C9.55182 14.5967 10.6464 14.3164 11.4307 13.8828C12.2193 13.4467 12.6717 12.8703 12.6719 12.2842C12.6719 11.6979 12.2196 11.1208 11.4307 10.6846C10.6464 10.251 9.55183 9.97072 8.3252 9.9707Z" fill="#6941C6" stroke="#6941C6" stroke-width="0.2"/>
<path d="M10.0548 9.35278C10.2823 9.25342 10.5479 9.35776 10.6476 9.58521C10.7469 9.81271 10.6426 10.0783 10.4152 10.178C8.52185 11.0079 7.09945 12.6726 6.58508 14.6799C6.52334 14.9206 6.27793 15.0658 6.03723 15.0042C5.79653 14.9424 5.65132 14.697 5.71301 14.4563C6.29642 12.1796 7.90869 10.2933 10.0548 9.35278Z" fill="#6941C6" stroke="#6941C6" stroke-width="0.2"/>
<path d="M3.83496 10.8674C5.19497 10.5299 6.62707 10.5717 7.96484 10.9885H7.9668L7.98145 10.9934C8.21855 11.0679 8.35082 11.3208 8.27637 11.5579C8.20177 11.7947 7.94889 11.9263 7.71191 11.8518C6.52727 11.4797 5.25714 11.4413 4.05176 11.7405C3.81067 11.8001 3.56667 11.6534 3.50684 11.4124C3.44701 11.1713 3.59406 10.9275 3.83496 10.8674Z" fill="#6941C6" stroke="#6941C6" stroke-width="0.2"/>
</svg>
