<svg width="16" height="16" viewBox="0 0 16 16" fill="none" xmlns="http://www.w3.org/2000/svg">
<path d="M8.49512 1.90527C9.10604 1.86958 9.71058 2.04793 10.2158 2.41309C10.6591 2.73348 11.0042 3.18131 11.2129 3.70117L11.2939 3.92871L11.2959 3.93555C11.3816 4.30064 11.4288 4.67472 11.4385 5.05078C11.5405 5.1487 11.624 5.26635 11.6816 5.39844L11.7441 5.5791C11.8568 6.01193 11.7407 6.52423 11.4238 7.12109L11.4229 7.12305C11.3663 7.22449 11.2867 7.30927 11.1924 7.37305C11.0108 7.84573 10.7622 8.28557 10.4561 8.67871C10.6927 8.82819 10.9436 8.9506 11.2061 9.03809C11.7897 9.23315 12.4836 9.54217 13.0469 10.1445C13.612 10.7489 14.0375 11.6397 14.0996 12.9834V12.9863C14.1026 13.1291 14.0586 13.2695 13.9746 13.3828C13.8905 13.4961 13.771 13.5765 13.6357 13.6074H13.6338C11.9416 13.9477 10.222 14.1119 8.5 14.0986L8.49902 14.0996V14.0986C6.77731 14.1118 5.05807 13.9476 3.36621 13.6074H3.36426C3.22903 13.5765 3.10948 13.4961 3.02539 13.3828C2.94137 13.2695 2.89741 13.1291 2.90039 12.9863V12.9844C2.95997 11.6377 3.38366 10.7444 3.94824 10.1387C4.51096 9.53489 5.20562 9.22496 5.78906 9.02734L6.00879 8.94531C6.19262 8.86966 6.36929 8.7762 6.53906 8.66895C6.23287 8.27586 5.98433 7.83591 5.80273 7.36328C5.70916 7.30129 5.63017 7.21844 5.57324 7.11914L5.57129 7.11621C5.20923 6.42902 5.10959 5.85661 5.31348 5.3877L5.31445 5.38672C5.37266 5.25713 5.45471 5.1411 5.55566 5.04492C5.56528 4.67074 5.61343 4.29869 5.69922 3.93555L5.70117 3.92871C5.89399 3.31315 6.27174 2.78121 6.77734 2.41504C7.2816 2.04993 7.88497 1.87075 8.49512 1.90527ZM9.5498 9.52344C9.23665 9.7171 8.88146 9.82218 8.51758 9.82227C8.15325 9.82227 7.79686 9.71748 7.4834 9.52344C7.07615 9.83352 6.62521 10.0731 6.14551 10.2285L6.14453 10.2275C5.66403 10.3898 5.20886 10.5992 4.84766 10.958C4.50295 11.3004 4.23888 11.7872 4.12695 12.5195C5.53895 12.7579 6.96594 12.8791 8.39551 12.8818V12.8779H8.49512C9.9664 12.8788 11.4351 12.7526 12.8877 12.5039C12.7758 11.7715 12.513 11.2848 12.1689 10.9424C11.8081 10.5834 11.3524 10.3742 10.8691 10.2119C10.3971 10.0591 9.95204 9.82628 9.5498 9.52344ZM8.50586 3.15137L8.49512 3.15234L8.48438 3.15137C8.13337 3.11455 7.78035 3.20392 7.48145 3.40625C7.18396 3.60762 6.95676 3.90969 6.83691 4.26562C6.75768 4.62803 6.72409 5.00013 6.7373 5.37207L6.7334 5.47363C6.72173 5.57411 6.68682 5.67079 6.63086 5.75488C6.57137 5.84418 6.48959 5.91404 6.39551 5.95996C6.40907 6.11674 6.45575 6.26763 6.5332 6.40137C6.64425 6.4664 6.73703 6.55865 6.80078 6.67188L6.85938 6.80273L6.86133 6.80859C6.90907 6.98275 7.10825 7.43535 7.4082 7.84375C7.55764 8.04719 7.72912 8.23551 7.91504 8.37207C8.10089 8.50854 8.29577 8.58984 8.49512 8.58984C8.69473 8.58984 8.89029 8.50866 9.07617 8.37305C9.26187 8.23746 9.43276 8.05057 9.58203 7.84863C9.88211 7.44262 10.0814 6.99214 10.1289 6.81836L10.1309 6.81445C10.187 6.63956 10.3029 6.49322 10.4561 6.40137C10.5359 6.26617 10.5833 6.11341 10.5977 5.9541C10.5044 5.90815 10.4234 5.83872 10.3643 5.75C10.2895 5.63772 10.2524 5.50242 10.2578 5.36621C10.2696 4.99274 10.2343 4.61935 10.1533 4.25586C10.0319 3.90177 9.80415 3.60184 9.50684 3.40234C9.20804 3.20186 8.85581 3.11386 8.50586 3.15137Z" fill="#1F2A37" stroke="#1F2A37" stroke-width="0.2"/>
</svg>
