<svg width="14" height="14" viewBox="0 0 14 14" fill="none" xmlns="http://www.w3.org/2000/svg">
<g clip-path="url(#clip0_1252_1677)">
<path d="M12.1391 8.66409L9.57763 7.56633C9.44389 7.50876 9.29788 7.48558 9.15289 7.4989C9.0079 7.51222 8.86855 7.56162 8.74754 7.64259L7.378 8.55551C6.54098 8.14841 5.86353 7.47394 5.45273 6.63873L5.45283 6.63862L6.36255 5.24857C6.44173 5.1279 6.48977 4.98948 6.50238 4.84569C6.51498 4.7019 6.49174 4.55724 6.43475 4.42463L5.33598 1.86099C5.26119 1.68697 5.13204 1.54186 4.96787 1.44739C4.8037 1.35291 4.61335 1.31416 4.42531 1.33692C3.68641 1.43193 3.00736 1.79268 2.51503 2.3518C2.0227 2.91091 1.75076 3.63014 1.75 4.37512C1.75 8.71744 5.28268 12.2501 9.625 12.2501C10.37 12.2494 11.0892 11.9774 11.6483 11.4851C12.2075 10.9927 12.5682 10.3137 12.6632 9.57476C12.6859 9.38672 12.6471 9.19639 12.5526 9.03223C12.4582 8.86807 12.3131 8.73892 12.1391 8.66409Z" fill="#7D7F88"/>
</g>
<defs>
<clipPath id="clip0_1252_1677">
<rect width="14" height="14" fill="white"/>
</clipPath>
</defs>
</svg>
