<svg width="25" height="25" viewBox="0 0 25 25" fill="none" xmlns="http://www.w3.org/2000/svg">
<g clip-path="url(#clip0_3477_130)">
<path fill-rule="evenodd" clip-rule="evenodd" d="M7.00012 12.4141C7.00012 12.0376 7.30536 11.7323 7.6819 11.7323H9.73486C10.8394 11.7323 11.7349 10.8369 11.7349 9.73233V7.68178C11.7349 7.30524 12.0401 7 12.4166 7C12.7932 7 13.0984 7.30524 13.0984 7.68178V9.73233C13.0984 10.8369 13.9939 11.7323 15.0984 11.7323H17.3183C17.6949 11.7323 18.0001 12.0376 18.0001 12.4141C18.0001 12.7906 17.6949 13.0959 17.3183 13.0959H15.0984C13.9939 13.0959 13.0984 13.9913 13.0984 15.0959V17.3182C13.0984 17.6948 12.7932 18 12.4166 18C12.0401 18 11.7349 17.6948 11.7349 17.3182V15.0959C11.7349 13.9913 10.8394 13.0959 9.73487 13.0959H7.6819C7.30536 13.0959 7.00012 12.7906 7.00012 12.4141Z" fill="#94A3B8"/>
<path d="M12.5621 23.0333C15.2654 23.0075 17.942 21.8875 19.8666 19.9857C22.1525 17.7265 23.3298 14.3844 22.9194 11.1938C22.2155 5.72553 17.7206 2.01514 12.4948 2.01514C8.52449 2.01514 4.66534 4.4988 2.97267 8.10026C1.67725 10.8574 1.67463 14.1863 2.97267 16.9486C4.65353 20.5247 8.4488 22.9952 12.4269 23.0333C12.472 23.0337 12.5171 23.0337 12.5621 23.0333ZM12.4383 21.282C8.40024 21.2431 4.63297 18.1202 3.88398 14.1167C3.35548 11.294 4.35253 8.23982 6.42932 6.23522C8.85436 3.89462 12.6649 3.11019 15.8337 4.43711C18.6691 5.62447 20.791 8.38069 21.1821 11.4173C21.5172 14.02 20.5832 16.7478 18.7474 18.6273C17.1375 20.2753 14.8795 21.2592 12.5508 21.282C12.5136 21.282 12.4759 21.282 12.4383 21.282Z" fill="#94A3B8"/>
</g>
<defs>
<clipPath id="clip0_3477_130">
<rect width="25" height="25" fill="white"/>
</clipPath>
</defs>
</svg>
