<svg width="32" height="32" viewBox="0 0 32 32" fill="none" xmlns="http://www.w3.org/2000/svg">
<path opacity="0.34" d="M16 20C18.2092 20 20 18.2092 20 16C20 13.7908 18.2092 12 16 12C13.7908 12 12 13.7908 12 16C12 18.2092 13.7908 20 16 20Z" stroke="white" stroke-width="2" stroke-miterlimit="10" stroke-linecap="round" stroke-linejoin="round"/>
<path d="M2.66663 17.1733V14.8266C2.66663 13.4399 3.79996 12.2933 5.19996 12.2933C7.61329 12.2933 8.59996 10.5867 7.38663 8.49333C6.69329 7.29333 7.10663 5.73333 8.31996 5.04L10.6266 3.72C11.68 3.09333 13.04 3.46666 13.6666 4.52L13.8133 4.77333C15.0133 6.86666 16.9866 6.86666 18.2 4.77333L18.3466 4.52C18.9733 3.46666 20.3333 3.09333 21.3866 3.72L23.6933 5.04C24.9066 5.73333 25.32 7.29333 24.6266 8.49333C23.4133 10.5867 24.4 12.2933 26.8133 12.2933C28.2 12.2933 29.3466 13.4266 29.3466 14.8266V17.1733C29.3466 18.5599 28.2133 19.7066 26.8133 19.7066C24.4 19.7066 23.4133 21.4133 24.6266 23.5066C25.32 24.7199 24.9066 26.2666 23.6933 26.9599L21.3866 28.2799C20.3333 28.9066 18.9733 28.5333 18.3466 27.4799L18.2 27.2266C17 25.1333 15.0266 25.1333 13.8133 27.2266L13.6666 27.4799C13.04 28.5333 11.68 28.9066 10.6266 28.2799L8.31996 26.9599C7.10663 26.2666 6.69329 24.7066 7.38663 23.5066C8.59996 21.4133 7.61329 19.7066 5.19996 19.7066C3.79996 19.7066 2.66663 18.5599 2.66663 17.1733Z" stroke="white" stroke-width="2" stroke-miterlimit="10" stroke-linecap="round" stroke-linejoin="round"/>
</svg>
