<svg width="18" height="18" viewBox="0 0 18 18" fill="none" xmlns="http://www.w3.org/2000/svg">
<path d="M15.9206 3.49999H13.8069L14.4319 2.24998H15.9206C16.2658 2.24998 16.5456 1.97016 16.5456 1.62499C16.5456 1.27981 16.2658 1 15.9206 1H14.0456C14.0429 1 14.0403 1.00038 14.0375 1.00041C14.0247 1.00059 14.012 1.00138 13.9992 1.00234C13.9907 1.00296 13.9822 1.00349 13.9737 1.00445C13.9632 1.00568 13.9527 1.0075 13.9423 1.00926C13.932 1.01099 13.9216 1.0126 13.9115 1.01482C13.9033 1.01661 13.8953 1.01893 13.8873 1.02104C13.8754 1.02414 13.8635 1.02719 13.852 1.03097C13.8452 1.03316 13.8386 1.03586 13.832 1.03829C13.8197 1.04274 13.8075 1.04717 13.7957 1.05235C13.7886 1.05543 13.7818 1.05903 13.7749 1.06237C13.764 1.06762 13.7531 1.07274 13.7425 1.0786C13.734 1.08335 13.7257 1.08874 13.7174 1.09393C13.709 1.09911 13.7005 1.10406 13.6924 1.1096C13.6825 1.1164 13.673 1.12393 13.6634 1.13131C13.6573 1.136 13.6511 1.14045 13.6452 1.14537C13.6352 1.15366 13.6258 1.16263 13.6163 1.17159C13.6112 1.17645 13.6059 1.18111 13.6009 1.18615C13.5923 1.19485 13.5843 1.20411 13.5762 1.21337C13.5707 1.21961 13.5651 1.2257 13.5598 1.23215C13.5533 1.24023 13.5472 1.24879 13.5411 1.25728C13.5348 1.26584 13.5286 1.27434 13.5227 1.28321C13.5181 1.29033 13.5138 1.29774 13.5095 1.3051C13.5029 1.31605 13.4965 1.32707 13.4906 1.33847C13.4894 1.3409 13.4879 1.3431 13.4866 1.34553L12.4094 3.50004H8.42066C8.0836 3.50004 7.80959 3.76708 7.79687 4.10104C7.56598 3.95256 7.28992 3.86942 7.00003 3.86942C6.78106 3.86942 6.5691 3.91662 6.37829 4.00404C6.20541 3.91706 6.00997 3.86942 5.80689 3.86942C5.37212 3.86942 4.98031 4.08727 4.76345 4.42357C4.2952 4.50147 3.89852 4.79622 3.70956 5.20272C3.3563 5.32951 3.06702 5.58533 2.91397 5.91448C2.3854 6.104 2 6.58222 2 7.16314C2 7.39884 2.06346 7.61771 2.1742 7.80726C2.16767 7.86788 2.16978 7.93069 2.18214 7.99429L3.64027 15.4943C3.69737 15.788 3.9546 16 4.25377 16H10.0875C10.1229 16 10.1576 15.9967 10.1915 15.9909C10.2255 15.9967 10.2602 16 10.2957 16H14.0456C14.3567 16 14.6204 15.7713 14.6644 15.4634L15.8377 7.25004H15.9206C16.2658 7.25004 16.5456 6.97022 16.5456 6.62505V4.12506C16.5457 3.7798 16.2658 3.49999 15.9206 3.49999ZM15.2957 4.74999V6H9.04568V4.74999H15.2957ZM3.42069 7.07686C3.76587 7.07686 4.04568 6.79705 4.04568 6.45187C4.04568 6.42038 4.10758 6.36501 4.2163 6.36501C4.56148 6.36501 4.84129 6.0852 4.84129 5.74002C4.84129 5.70853 4.90317 5.65315 5.0113 5.65315C5.0229 5.65315 5.03984 5.65547 5.06577 5.66177C5.42544 5.74907 5.77308 5.50746 5.83006 5.15602C6.06417 5.50031 6.57733 5.52533 6.84048 5.18438C6.86881 5.14767 6.92761 5.11937 7.00009 5.11937C7.07758 5.11937 7.13775 5.15247 7.16239 5.19299C7.30378 5.42537 7.55892 5.52278 7.7957 5.48531V6.62499C7.7957 6.97016 8.07552 7.24998 8.42069 7.24998H3.42069C3.31197 7.24998 3.25007 7.19461 3.25007 7.16311C3.25007 7.13191 3.31168 7.07686 3.42069 7.07686ZM9.54062 14.75H4.76899L3.5539 8.49999H8.5176L9.55615 14.6341L9.54062 14.75ZM13.5036 14.75H10.8377L9.76632 7.24998H14.575L13.5036 14.75Z" fill="#6941C6"/>
</svg>
