<svg width="18" height="18" viewBox="0 0 18 18" fill="none" xmlns="http://www.w3.org/2000/svg">
<path d="M16.0564 10.4159L13.8528 8.2125C13.7362 8.09593 13.5781 8.03044 13.4132 8.03044H9.62203V6.97635H12.0759C12.4193 6.97635 12.6977 6.69803 12.6977 6.35454V1.94684C12.6977 1.60335 12.4193 1.32503 12.0759 1.32503H9.62203V0.621807C9.62203 0.278321 9.34363 0 9.00023 0C8.65682 0 8.37842 0.278321 8.37842 0.621807V1.32503H4.58688C4.42198 1.32503 4.26379 1.39053 4.14714 1.50718L1.94354 3.71111C1.70079 3.95395 1.70079 4.34759 1.94354 4.59035L4.14714 6.7942C4.26379 6.91085 4.4219 6.97635 4.58688 6.97635H8.37842V8.03035H5.92419C5.58078 8.03035 5.30238 8.30867 5.30238 8.65216V13.0594C5.30238 13.4029 5.58078 13.6812 5.92419 13.6812H8.3785V17.3782C8.3785 17.7217 8.6569 18 9.00031 18C9.34371 18 9.62212 17.7217 9.62212 17.3782V13.6812H13.4132C13.5781 13.6812 13.7363 13.6157 13.853 13.499L16.0566 11.2952C16.1731 11.1786 16.2386 11.0204 16.2386 10.8555C16.2386 10.6906 16.1731 10.5324 16.0564 10.4159ZM3.2626 4.15069L4.84448 2.56865H11.454V5.73273H4.84448L3.2626 4.15069ZM13.1556 12.4376H6.54599V9.27405H13.1556L14.7374 10.8557L13.1556 12.4376Z" fill="#6941C6"/>
</svg>
