<svg width="18" height="18" viewBox="0 0 18 18" fill="none" xmlns="http://www.w3.org/2000/svg">
<path d="M1.73648 9.52335C1.69902 9.20295 1.6803 9.04275 1.68818 8.91068C1.72949 8.21828 2.24008 7.6446 2.92294 7.52318C3.05321 7.5 3.2145 7.5 3.53709 7.5H11.4629C11.7854 7.5 11.9468 7.5 12.077 7.52318C12.7599 7.6446 13.2705 8.21828 13.3118 8.91068C13.3196 9.04275 13.301 9.20295 13.2635 9.52335L12.963 12.0943C12.8273 13.2547 12.2073 14.3036 11.2561 14.9818C10.5552 15.4814 9.71595 15.75 8.85518 15.75H6.14477C5.28403 15.75 4.44473 15.4814 3.74387 14.9818C2.79264 14.3036 2.17261 13.2547 2.03699 12.0943L1.73648 9.52335Z" stroke="#6941C6" stroke-width="1.5"/>
<path d="M12.75 12.75H14.25C15.4927 12.75 16.5 11.7427 16.5 10.5C16.5 9.25732 15.4927 8.25 14.25 8.25H13.125" stroke="#6941C6" stroke-width="1.5"/>
<path d="M7.50014 1.5C7.08589 1.91421 7.08589 2.58579 7.50014 3C7.91429 3.41421 7.91429 4.08579 7.50014 4.5" stroke="#6941C6" stroke-width="1.5" stroke-linecap="round" stroke-linejoin="round"/>
<path d="M3.75014 5.625L3.83723 5.53791C4.2176 5.15753 4.2604 4.55535 3.93764 4.125C3.61487 3.69465 3.65768 3.09247 4.03805 2.71209L4.12514 2.625" stroke="#6941C6" stroke-width="1.5" stroke-linecap="round" stroke-linejoin="round"/>
<path d="M10.8752 5.625L10.9622 5.53791C11.3426 5.15753 11.3854 4.55535 11.0627 4.125C10.7399 3.69465 10.7827 3.09247 11.1631 2.71209L11.2502 2.625" stroke="#6941C6" stroke-width="1.5" stroke-linecap="round" stroke-linejoin="round"/>
</svg>
