<svg width="16" height="16" viewBox="0 0 16 16" fill="none" xmlns="http://www.w3.org/2000/svg">
<path d="M14 8C14 11.3137 11.3137 14 8 14C4.68629 14 2 11.3137 2 8C2 4.68629 4.68629 2 8 2C11.3137 2 14 4.68629 14 8ZM3.09463 8C3.09463 10.7092 5.29084 12.9054 8 12.9054C10.7092 12.9054 12.9054 10.7092 12.9054 8C12.9054 5.29084 10.7092 3.09463 8 3.09463C5.29084 3.09463 3.09463 5.29084 3.09463 8Z" fill="#1F2A37"/>
<path d="M7.9998 4.18164C7.69855 4.18164 7.45435 4.42585 7.45435 4.7271V8.25439C7.45435 8.25439 7.45435 8.39659 7.52346 8.50355C7.56971 8.59426 7.64182 8.67308 7.73656 8.72779L10.2565 10.1827C10.5173 10.3333 10.8509 10.2439 11.0015 9.98299C11.1521 9.7221 11.0628 9.38849 10.8019 9.2379L8.54525 7.93502V4.7271C8.54525 4.42585 8.30105 4.18164 7.9998 4.18164Z" fill="#1F2A37"/>
</svg>
