<svg width="18" height="18" viewBox="0 0 18 18" fill="none" xmlns="http://www.w3.org/2000/svg">
<rect x="4.75" y="5" width="8" height="8" fill="#718096"/>
<path fill-rule="evenodd" clip-rule="evenodd" d="M12.2426 11.4727C12.098 11.882 11.5232 12.2206 11.0648 12.3196C10.751 12.3862 10.3418 12.439 8.963 11.8676C7.4144 11.226 5.264 8.94058 5.264 7.41973C5.264 6.64549 5.7104 5.74395 6.491 5.74395C6.8666 5.74395 6.9494 5.75127 7.073 6.04775C7.2176 6.39706 7.5704 7.25767 7.6124 7.3459C7.7858 7.70781 7.436 7.91967 7.1822 8.23477C7.1012 8.32959 7.0094 8.43215 7.112 8.60859C7.214 8.78145 7.5668 9.35643 8.0852 9.81797C8.7548 10.4145 9.2978 10.605 9.4922 10.686C9.6368 10.7461 9.8096 10.7321 9.9152 10.6192C10.049 10.4746 10.2152 10.2346 10.3844 9.99814C10.5038 9.82889 10.6556 9.80776 10.8146 9.86777C10.922 9.90499 12.287 10.5389 12.3446 10.6403C12.3872 10.7142 12.3872 11.0633 12.2426 11.4727ZM8.7512 3H8.7482C5.4404 3 2.75 5.69121 2.75 9C2.75 10.312 3.173 11.5292 3.8924 12.5165L3.1448 14.746L5.4506 14.0092C6.3992 14.637 7.5314 15 8.7512 15C12.059 15 14.75 12.3088 14.75 9C14.75 5.69121 12.059 3 8.7512 3Z" fill="white"/>
<path d="M8.99966 1.5C8.01474 1.5 7.03947 1.69399 6.12953 2.0709C5.21959 2.44781 4.39279 3.00026 3.69635 3.6967C2.28983 5.10322 1.49966 7.01088 1.49966 9C1.4931 10.7319 2.09275 12.4114 3.19466 13.7475L1.69466 15.2475C1.59059 15.353 1.52009 15.4869 1.49206 15.6324C1.46403 15.7779 1.47972 15.9284 1.53716 16.065C1.59945 16.1999 1.70043 16.3133 1.82729 16.3908C1.95415 16.4682 2.10116 16.5063 2.24966 16.5H8.99966C10.9888 16.5 12.8964 15.7098 14.303 14.3033C15.7095 12.8968 16.4997 10.9891 16.4997 9C16.4997 7.01088 15.7095 5.10322 14.303 3.6967C12.8964 2.29018 10.9888 1.5 8.99966 1.5ZM8.99966 15H4.05716L4.75466 14.3025C4.89434 14.162 4.97275 13.9719 4.97275 13.7738C4.97275 13.5756 4.89434 13.3855 4.75466 13.245C3.7726 12.264 3.16104 10.9729 3.02417 9.59159C2.88731 8.21029 3.23361 6.82425 4.00408 5.66964C4.77454 4.51503 5.9215 3.66327 7.24954 3.25948C8.57759 2.85569 10.0046 2.92485 11.2873 3.45519C12.5701 3.98552 13.6293 4.94421 14.2845 6.16792C14.9397 7.39163 15.1503 8.80466 14.8805 10.1663C14.6107 11.5279 13.8771 12.7538 12.8048 13.6352C11.7325 14.5166 10.3877 14.9989 8.99966 15Z" fill="#718096"/>
</svg>
